<?xml version="1.0" encoding="utf-8" standalone="no"?>
<!DOCTYPE svg PUBLIC "-//W3C//DTD SVG 1.1//EN"
  "http://www.w3.org/Graphics/SVG/1.1/DTD/svg11.dtd">
<svg height="206.263327pt" version="1.1" viewBox="0 0 238.011337 206.263327" width="238.011337pt" xmlns="http://www.w3.org/2000/svg" xmlns:xlink="http://www.w3.org/1999/xlink">
 <metadata>
  <rdf:RDF xmlns:cc="http://creativecommons.org/ns#" xmlns:dc="http://purl.org/dc/elements/1.1/" xmlns:rdf="http://www.w3.org/1999/02/22-rdf-syntax-ns#">
   <cc:Work>
    <dc:type rdf:resource="http://purl.org/dc/dcmitype/StillImage"/>
    <dc:date>2022-08-03T15:21:29.723416</dc:date>
    <dc:format>image/svg+xml</dc:format>
    <dc:creator>
     <cc:Agent>
      <dc:title>Matplotlib v3.4.1, https://matplotlib.org/</dc:title>
     </cc:Agent>
    </dc:creator>
   </cc:Work>
  </rdf:RDF>
 </metadata>
 <defs>
  <style type="text/css">*{stroke-linecap:butt;stroke-linejoin:round;}</style>
 </defs>
 <g id="figure_1">
  <g id="patch_1">
   <path d="M 0 206.263327 
L 238.011337 206.263327 
L 238.011337 0 
L 0 0 
z
" style="fill:none;"/>
  </g>
  <g id="axes_1">
   <g id="patch_2">
    <path clip-path="url(#p820b701be9)" d="M 68.083448 142.662581 
C 60.621942 130.251636 56.678804 116.040098 56.678804 101.558881 
C 56.678804 87.077665 60.621942 72.866126 68.083448 60.455181 
C 59.045106 62.888481 51.056876 68.236321 45.363174 75.665609 
C 39.669471 83.094897 36.582147 92.198722 36.582147 101.558881 
C 36.582147 110.91904 39.669471 120.022865 45.363174 127.452153 
C 51.056876 134.881441 59.045106 140.229281 68.083448 142.662581 
" style="fill:#ff0000;opacity:0.4;"/>
   </g>
   <g id="patch_3">
    <path clip-path="url(#p820b701be9)" d="M 68.083448 60.455181 
C 74.392085 58.756771 81.007862 58.533325 87.41672 59.802206 
C 93.825577 61.071086 99.857106 63.798554 105.042647 67.77268 
C 110.228188 71.746806 114.429859 76.86192 117.321182 82.720568 
C 120.212506 88.579215 121.716603 95.025619 121.716603 101.558881 
C 121.716603 108.092143 120.212506 114.538547 117.321182 120.397194 
C 114.429859 126.255842 110.228188 131.370956 105.042647 135.345082 
C 99.857106 139.319208 93.825577 142.046676 87.41672 143.315556 
C 81.007862 144.584437 74.392085 144.360991 68.083448 142.662581 
C 72.546622 150.086312 78.189286 156.733786 84.789481 162.343521 
C 91.389675 167.953256 98.85971 172.450718 106.905742 175.658997 
C 114.951775 178.867276 123.466905 180.743745 132.116182 181.214592 
C 140.76546 181.685438 149.433968 180.744407 157.780724 178.428514 
C 166.12748 176.112621 174.041587 172.452636 181.211736 167.592527 
C 188.381885 162.732418 194.712812 156.736758 199.955485 149.841392 
C 205.198158 142.946025 209.282921 135.242566 212.049096 127.034036 
C 214.815272 118.825505 216.226108 110.220965 216.226108 101.558881 
C 216.226108 92.896797 214.815272 84.292257 212.049096 76.083726 
C 209.282921 67.875196 205.198158 60.171737 199.955485 53.27637 
C 194.712812 46.381004 188.381885 40.385344 181.211736 35.525235 
C 174.041587 30.665126 166.12748 27.005141 157.780724 24.689248 
C 149.433968 22.373355 140.76546 21.432324 132.116182 21.90317 
C 123.466905 22.374017 114.951775 24.250486 106.905742 27.458765 
C 98.85971 30.667044 91.389675 35.164506 84.789481 40.774241 
C 78.189286 46.383976 72.546622 53.03145 68.083448 60.455181 
" style="fill:#008000;opacity:0.4;"/>
   </g>
   <g id="patch_4">
    <path clip-path="url(#p820b701be9)" d="M 68.083448 142.662581 
C 74.392085 144.360991 81.007862 144.584437 87.41672 143.315556 
C 93.825577 142.046676 99.857106 139.319208 105.042647 135.345082 
C 110.228188 131.370956 114.429859 126.255842 117.321182 120.397194 
C 120.212506 114.538547 121.716603 108.092143 121.716603 101.558881 
C 121.716603 95.025619 120.212506 88.579215 117.321182 82.720568 
C 114.429859 76.86192 110.228188 71.746806 105.042647 67.77268 
C 99.857106 63.798554 93.825577 61.071086 87.41672 59.802206 
C 81.007862 58.533325 74.392085 58.756771 68.083448 60.455181 
C 60.621942 72.866126 56.678804 87.077665 56.678804 101.558881 
C 56.678804 116.040098 60.621942 130.251636 68.083448 142.662581 
" style="fill:#b25900;opacity:0.4;"/>
   </g>
   <g id="text_1">
    <text style="font-family:DejaVu Sans;font-size:10px;font-stretch:normal;font-style:normal;font-weight:normal;text-anchor:middle;" transform="rotate(-0, 46.630476, 104.318256)" x="46.630476" y="104.318256">65</text>
   </g>
   <g id="text_2">
    <text style="font-family:DejaVu Sans;font-size:10px;font-stretch:normal;font-style:normal;font-weight:normal;text-anchor:middle;" transform="rotate(-0, 168.971355, 104.318256)" x="168.971355" y="104.318256">791</text>
   </g>
   <g id="text_3">
    <text style="font-family:DejaVu Sans;font-size:10px;font-stretch:normal;font-style:normal;font-weight:normal;text-anchor:middle;" transform="rotate(-0, 89.197704, 104.318256)" x="89.197704" y="104.318256">224</text>
   </g>
   <g id="text_4">
    <text style="font-family:DejaVu Sans;font-size:12px;font-stretch:normal;font-style:normal;font-weight:normal;text-anchor:end;" transform="rotate(-0, 79.149375, 159.361278)" x="79.149375" y="159.361278">HMPv35oral</text>
   </g>
   <g id="text_5">
    <text style="font-family:DejaVu Sans;font-size:12px;font-stretch:normal;font-style:normal;font-weight:normal;text-anchor:start;" transform="rotate(-0, 136.452456, 196.567702)" x="136.452456" y="196.567702">HOMD</text>
   </g>
  </g>
 </g>
 <defs>
  <clipPath id="p820b701be9">
   <rect height="188.717762" width="208.81442" x="21.996917" y="7.2"/>
  </clipPath>
 </defs>
</svg>
