<?xml version="1.0" encoding="utf-8" standalone="no"?>
<!DOCTYPE svg PUBLIC "-//W3C//DTD SVG 1.1//EN"
  "http://www.w3.org/Graphics/SVG/1.1/DTD/svg11.dtd">
<svg height="279.955469pt" version="1.1" viewBox="0 0 424.35625 279.955469" width="424.35625pt" xmlns="http://www.w3.org/2000/svg" xmlns:xlink="http://www.w3.org/1999/xlink">
 <metadata>
  <rdf:RDF xmlns:cc="http://creativecommons.org/ns#" xmlns:dc="http://purl.org/dc/elements/1.1/" xmlns:rdf="http://www.w3.org/1999/02/22-rdf-syntax-ns#">
   <cc:Work>
    <dc:type rdf:resource="http://purl.org/dc/dcmitype/StillImage"/>
    <dc:date>2022-08-04T21:06:50.899623</dc:date>
    <dc:format>image/svg+xml</dc:format>
    <dc:creator>
     <cc:Agent>
      <dc:title>Matplotlib v3.4.1, https://matplotlib.org/</dc:title>
     </cc:Agent>
    </dc:creator>
   </cc:Work>
  </rdf:RDF>
 </metadata>
 <defs>
  <style type="text/css">*{stroke-linecap:butt;stroke-linejoin:round;}</style>
 </defs>
 <g id="figure_1">
  <g id="patch_1">
   <path d="M 0 279.955469 
L 424.35625 279.955469 
L 424.35625 0 
L 0 0 
z
" style="fill:none;"/>
  </g>
  <g id="axes_1">
   <g id="patch_2">
    <path d="M 56.50625 242.399219 
L 212.93125 242.399219 
L 212.93125 10.999219 
L 56.50625 10.999219 
z
" style="fill:#ffffff;"/>
   </g>
   <g id="PathCollection_1"/>
   <g id="PathCollection_2"/>
   <g id="PathCollection_3"/>
   <g id="PathCollection_4"/>
   <g id="PathCollection_5"/>
   <g id="PathCollection_6"/>
   <g id="PathCollection_7"/>
   <g id="PathCollection_8"/>
   <g id="PathCollection_9"/>
   <g id="PathCollection_10"/>
   <g id="PathCollection_11"/>
   <g id="matplotlib.axis_1">
    <g id="xtick_1">
     <g id="line2d_1">
      <defs>
       <path d="M 0 0 
L 0 3.5 
" id="m46ac06b7f9" style="stroke:#000000;stroke-width:0.8;"/>
      </defs>
      <g>
       <use style="stroke:#000000;stroke-width:0.8;" x="134.71875" xlink:href="#m46ac06b7f9" y="242.399219"/>
      </g>
     </g>
     <g id="text_1">
      <text style="font-family:DejaVu Sans;font-size:10px;font-stretch:normal;font-style:normal;font-weight:normal;text-anchor:middle;" transform="rotate(-0, 134.71875, 256.997656)" x="134.71875" y="256.997656">fMOMD</text>
     </g>
    </g>
    <g id="text_2">
     <text style="font-family:DejaVu Sans;font-size:10px;font-stretch:normal;font-style:normal;font-weight:normal;text-anchor:middle;" transform="rotate(-0, 134.71875, 270.675781)" x="134.71875" y="270.675781">Method</text>
    </g>
   </g>
   <g id="matplotlib.axis_2">
    <g id="ytick_1">
     <g id="line2d_2">
      <defs>
       <path d="M 0 0 
L -3.5 0 
" id="mce654a04a3" style="stroke:#000000;stroke-width:0.8;"/>
      </defs>
      <g>
       <use style="stroke:#000000;stroke-width:0.8;" x="56.50625" xlink:href="#mce654a04a3" y="221.362855"/>
      </g>
     </g>
     <g id="text_3">
      <text style="font-family:DejaVu Sans;font-size:10px;font-stretch:normal;font-style:normal;font-weight:normal;text-anchor:end;" transform="rotate(-0, 49.50625, 225.162074)" x="49.50625" y="225.162074">0.000</text>
     </g>
    </g>
    <g id="ytick_2">
     <g id="line2d_3">
      <g>
       <use style="stroke:#000000;stroke-width:0.8;" x="56.50625" xlink:href="#mce654a04a3" y="195.067401"/>
      </g>
     </g>
     <g id="text_4">
      <text style="font-family:DejaVu Sans;font-size:10px;font-stretch:normal;font-style:normal;font-weight:normal;text-anchor:end;" transform="rotate(-0, 49.50625, 198.866619)" x="49.50625" y="198.866619">0.025</text>
     </g>
    </g>
    <g id="ytick_3">
     <g id="line2d_4">
      <g>
       <use style="stroke:#000000;stroke-width:0.8;" x="56.50625" xlink:href="#mce654a04a3" y="168.771946"/>
      </g>
     </g>
     <g id="text_5">
      <text style="font-family:DejaVu Sans;font-size:10px;font-stretch:normal;font-style:normal;font-weight:normal;text-anchor:end;" transform="rotate(-0, 49.50625, 172.571165)" x="49.50625" y="172.571165">0.050</text>
     </g>
    </g>
    <g id="ytick_4">
     <g id="line2d_5">
      <g>
       <use style="stroke:#000000;stroke-width:0.8;" x="56.50625" xlink:href="#mce654a04a3" y="142.476491"/>
      </g>
     </g>
     <g id="text_6">
      <text style="font-family:DejaVu Sans;font-size:10px;font-stretch:normal;font-style:normal;font-weight:normal;text-anchor:end;" transform="rotate(-0, 49.50625, 146.27571)" x="49.50625" y="146.27571">0.075</text>
     </g>
    </g>
    <g id="ytick_5">
     <g id="line2d_6">
      <g>
       <use style="stroke:#000000;stroke-width:0.8;" x="56.50625" xlink:href="#mce654a04a3" y="116.181037"/>
      </g>
     </g>
     <g id="text_7">
      <text style="font-family:DejaVu Sans;font-size:10px;font-stretch:normal;font-style:normal;font-weight:normal;text-anchor:end;" transform="rotate(-0, 49.50625, 119.980256)" x="49.50625" y="119.980256">0.100</text>
     </g>
    </g>
    <g id="ytick_6">
     <g id="line2d_7">
      <g>
       <use style="stroke:#000000;stroke-width:0.8;" x="56.50625" xlink:href="#mce654a04a3" y="89.885582"/>
      </g>
     </g>
     <g id="text_8">
      <text style="font-family:DejaVu Sans;font-size:10px;font-stretch:normal;font-style:normal;font-weight:normal;text-anchor:end;" transform="rotate(-0, 49.50625, 93.684801)" x="49.50625" y="93.684801">0.125</text>
     </g>
    </g>
    <g id="ytick_7">
     <g id="line2d_8">
      <g>
       <use style="stroke:#000000;stroke-width:0.8;" x="56.50625" xlink:href="#mce654a04a3" y="63.590128"/>
      </g>
     </g>
     <g id="text_9">
      <text style="font-family:DejaVu Sans;font-size:10px;font-stretch:normal;font-style:normal;font-weight:normal;text-anchor:end;" transform="rotate(-0, 49.50625, 67.389347)" x="49.50625" y="67.389347">0.150</text>
     </g>
    </g>
    <g id="ytick_8">
     <g id="line2d_9">
      <g>
       <use style="stroke:#000000;stroke-width:0.8;" x="56.50625" xlink:href="#mce654a04a3" y="37.294673"/>
      </g>
     </g>
     <g id="text_10">
      <text style="font-family:DejaVu Sans;font-size:10px;font-stretch:normal;font-style:normal;font-weight:normal;text-anchor:end;" transform="rotate(-0, 49.50625, 41.093892)" x="49.50625" y="41.093892">0.175</text>
     </g>
    </g>
    <g id="ytick_9">
     <g id="line2d_10">
      <g>
       <use style="stroke:#000000;stroke-width:0.8;" x="56.50625" xlink:href="#mce654a04a3" y="10.999219"/>
      </g>
     </g>
     <g id="text_11">
      <text style="font-family:DejaVu Sans;font-size:10px;font-stretch:normal;font-style:normal;font-weight:normal;text-anchor:end;" transform="rotate(-0, 49.50625, 14.798438)" x="49.50625" y="14.798438">0.200</text>
     </g>
    </g>
    <g id="text_12">
     <text style="font-family:DejaVu Sans;font-size:10px;font-stretch:normal;font-style:normal;font-weight:normal;text-anchor:middle;" transform="rotate(-90, 14.798438, 126.699219)" x="14.798438" y="126.699219">fMOMD</text>
    </g>
   </g>
   <g id="patch_3">
    <path d="M 56.50625 242.399219 
L 56.50625 10.999219 
" style="fill:none;stroke:#000000;stroke-linecap:square;stroke-linejoin:miter;stroke-width:0.8;"/>
   </g>
   <g id="patch_4">
    <path d="M 212.93125 242.399219 
L 212.93125 10.999219 
" style="fill:none;stroke:#000000;stroke-linecap:square;stroke-linejoin:miter;stroke-width:0.8;"/>
   </g>
   <g id="patch_5">
    <path d="M 56.50625 242.399219 
L 212.93125 242.399219 
" style="fill:none;stroke:#000000;stroke-linecap:square;stroke-linejoin:miter;stroke-width:0.8;"/>
   </g>
   <g id="patch_6">
    <path d="M 56.50625 10.999219 
L 212.93125 10.999219 
" style="fill:none;stroke:#000000;stroke-linecap:square;stroke-linejoin:miter;stroke-width:0.8;"/>
   </g>
   <g id="PathCollection_12">
    <defs>
     <path d="M 0 5 
C 1.326016 5 2.597899 4.473168 3.535534 3.535534 
C 4.473168 2.597899 5 1.326016 5 -0 
C 5 -1.326016 4.473168 -2.597899 3.535534 -3.535534 
C 2.597899 -4.473168 1.326016 -5 0 -5 
C -1.326016 -5 -2.597899 -4.473168 -3.535534 -3.535534 
C -4.473168 -2.597899 -5 -1.326016 -5 0 
C -5 1.326016 -4.473168 2.597899 -3.535534 3.535534 
C -2.597899 4.473168 -1.326016 5 0 5 
z
" id="C0_0_0798aba7e0"/>
    </defs>
    <g clip-path="url(#p8fed798157)">
     <use style="fill:#8dd3c7;stroke:#000000;stroke-width:0.5;" x="124.925514" xlink:href="#C0_0_0798aba7e0" y="176.396956"/>
    </g>
    <g clip-path="url(#p8fed798157)">
     <use style="fill:#ffffb3;stroke:#000000;stroke-width:0.5;" x="122.873583" xlink:href="#C0_0_0798aba7e0" y="191.942547"/>
    </g>
    <g clip-path="url(#p8fed798157)">
     <use style="fill:#bebada;stroke:#000000;stroke-width:0.5;" x="142.905252" xlink:href="#C0_0_0798aba7e0" y="166.42528"/>
    </g>
    <g clip-path="url(#p8fed798157)">
     <use style="fill:#fb8072;stroke:#000000;stroke-width:0.5;" x="128.72711" xlink:href="#C0_0_0798aba7e0" y="211.557912"/>
    </g>
    <g clip-path="url(#p8fed798157)">
     <use style="fill:#80b1d3;stroke:#000000;stroke-width:0.5;" x="126.146085" xlink:href="#C0_0_0798aba7e0" y="164.623578"/>
    </g>
    <g clip-path="url(#p8fed798157)">
     <use style="fill:#fdb462;stroke:#000000;stroke-width:0.5;" x="121.38589" xlink:href="#C0_0_0798aba7e0" y="170.968547"/>
    </g>
    <g clip-path="url(#p8fed798157)">
     <use style="fill:#b3de69;stroke:#000000;stroke-width:0.5;" x="143.605474" xlink:href="#C0_0_0798aba7e0" y="181.493101"/>
    </g>
    <g clip-path="url(#p8fed798157)">
     <use style="fill:#fccde5;stroke:#000000;stroke-width:0.5;" x="137.17378" xlink:href="#C0_0_0798aba7e0" y="211.002359"/>
    </g>
    <g clip-path="url(#p8fed798157)">
     <use style="fill:#d9d9d9;stroke:#000000;stroke-width:0.5;" x="119.4872" xlink:href="#C0_0_0798aba7e0" y="214.83424"/>
    </g>
    <g clip-path="url(#p8fed798157)">
     <use style="fill:#bc80bd;stroke:#000000;stroke-width:0.5;" x="124.159061" xlink:href="#C0_0_0798aba7e0" y="42.257645"/>
    </g>
    <g clip-path="url(#p8fed798157)">
     <use style="fill:#ccebc5;stroke:#000000;stroke-width:0.5;" x="124.130081" xlink:href="#C0_0_0798aba7e0" y="175.351802"/>
    </g>
   </g>
   <g id="legend_1">
    <g id="patch_7">
     <path d="M 152.578125 195.136719 
L 205.93125 195.136719 
Q 207.93125 195.136719 207.93125 193.136719 
L 207.93125 17.999219 
Q 207.93125 15.999219 205.93125 15.999219 
L 152.578125 15.999219 
Q 150.578125 15.999219 150.578125 17.999219 
L 150.578125 193.136719 
Q 150.578125 195.136719 152.578125 195.136719 
z
" style="fill:#ffffff;opacity:0.8;stroke:#cccccc;stroke-linejoin:miter;"/>
    </g>
    <g id="text_13">
     <text style="font-family:DejaVu Sans;font-size:10px;font-stretch:normal;font-style:normal;font-weight:normal;text-anchor:start;" transform="rotate(-0, 163.03125, 27.597656)" x="163.03125" y="27.597656">Mouse</text>
    </g>
    <g id="PathCollection_13">
     <defs>
      <path d="M 0 3.872983 
C 1.027127 3.872983 2.012324 3.464901 2.738613 2.738613 
C 3.464901 2.012324 3.872983 1.027127 3.872983 0 
C 3.872983 -1.027127 3.464901 -2.012324 2.738613 -2.738613 
C 2.012324 -3.464901 1.027127 -3.872983 0 -3.872983 
C -1.027127 -3.872983 -2.012324 -3.464901 -2.738613 -2.738613 
C -3.464901 -2.012324 -3.872983 -1.027127 -3.872983 0 
C -3.872983 1.027127 -3.464901 2.012324 -2.738613 2.738613 
C -2.012324 3.464901 -1.027127 3.872983 0 3.872983 
z
" id="md5b85f7087" style="stroke:#8dd3c7;"/>
     </defs>
     <g>
      <use style="fill:#8dd3c7;stroke:#8dd3c7;" x="164.578125" xlink:href="#md5b85f7087" y="39.650781"/>
     </g>
    </g>
    <g id="text_14">
     <text style="font-family:DejaVu Sans;font-size:10px;font-stretch:normal;font-style:normal;font-weight:normal;text-anchor:start;" transform="rotate(-0, 182.578125, 42.275781)" x="182.578125" y="42.275781">M7</text>
    </g>
    <g id="PathCollection_14">
     <defs>
      <path d="M 0 3.872983 
C 1.027127 3.872983 2.012324 3.464901 2.738613 2.738613 
C 3.464901 2.012324 3.872983 1.027127 3.872983 0 
C 3.872983 -1.027127 3.464901 -2.012324 2.738613 -2.738613 
C 2.012324 -3.464901 1.027127 -3.872983 0 -3.872983 
C -1.027127 -3.872983 -2.012324 -3.464901 -2.738613 -2.738613 
C -3.464901 -2.012324 -3.872983 -1.027127 -3.872983 0 
C -3.872983 1.027127 -3.464901 2.012324 -2.738613 2.738613 
C -2.012324 3.464901 -1.027127 3.872983 0 3.872983 
z
" id="mbe4700f9ad" style="stroke:#ffffb3;"/>
     </defs>
     <g>
      <use style="fill:#ffffb3;stroke:#ffffb3;" x="164.578125" xlink:href="#mbe4700f9ad" y="54.328906"/>
     </g>
    </g>
    <g id="text_15">
     <text style="font-family:DejaVu Sans;font-size:10px;font-stretch:normal;font-style:normal;font-weight:normal;text-anchor:start;" transform="rotate(-0, 182.578125, 56.953906)" x="182.578125" y="56.953906">M12</text>
    </g>
    <g id="PathCollection_15">
     <defs>
      <path d="M 0 3.872983 
C 1.027127 3.872983 2.012324 3.464901 2.738613 2.738613 
C 3.464901 2.012324 3.872983 1.027127 3.872983 0 
C 3.872983 -1.027127 3.464901 -2.012324 2.738613 -2.738613 
C 2.012324 -3.464901 1.027127 -3.872983 0 -3.872983 
C -1.027127 -3.872983 -2.012324 -3.464901 -2.738613 -2.738613 
C -3.464901 -2.012324 -3.872983 -1.027127 -3.872983 0 
C -3.872983 1.027127 -3.464901 2.012324 -2.738613 2.738613 
C -2.012324 3.464901 -1.027127 3.872983 0 3.872983 
z
" id="m8a6897ef8c" style="stroke:#bebada;"/>
     </defs>
     <g>
      <use style="fill:#bebada;stroke:#bebada;" x="164.578125" xlink:href="#m8a6897ef8c" y="69.007031"/>
     </g>
    </g>
    <g id="text_16">
     <text style="font-family:DejaVu Sans;font-size:10px;font-stretch:normal;font-style:normal;font-weight:normal;text-anchor:start;" transform="rotate(-0, 182.578125, 71.632031)" x="182.578125" y="71.632031">M15</text>
    </g>
    <g id="PathCollection_16">
     <defs>
      <path d="M 0 3.872983 
C 1.027127 3.872983 2.012324 3.464901 2.738613 2.738613 
C 3.464901 2.012324 3.872983 1.027127 3.872983 0 
C 3.872983 -1.027127 3.464901 -2.012324 2.738613 -2.738613 
C 2.012324 -3.464901 1.027127 -3.872983 0 -3.872983 
C -1.027127 -3.872983 -2.012324 -3.464901 -2.738613 -2.738613 
C -3.464901 -2.012324 -3.872983 -1.027127 -3.872983 0 
C -3.872983 1.027127 -3.464901 2.012324 -2.738613 2.738613 
C -2.012324 3.464901 -1.027127 3.872983 0 3.872983 
z
" id="m85352752c0" style="stroke:#fb8072;"/>
     </defs>
     <g>
      <use style="fill:#fb8072;stroke:#fb8072;" x="164.578125" xlink:href="#m85352752c0" y="83.685156"/>
     </g>
    </g>
    <g id="text_17">
     <text style="font-family:DejaVu Sans;font-size:10px;font-stretch:normal;font-style:normal;font-weight:normal;text-anchor:start;" transform="rotate(-0, 182.578125, 86.310156)" x="182.578125" y="86.310156">M9</text>
    </g>
    <g id="PathCollection_17">
     <defs>
      <path d="M 0 3.872983 
C 1.027127 3.872983 2.012324 3.464901 2.738613 2.738613 
C 3.464901 2.012324 3.872983 1.027127 3.872983 0 
C 3.872983 -1.027127 3.464901 -2.012324 2.738613 -2.738613 
C 2.012324 -3.464901 1.027127 -3.872983 0 -3.872983 
C -1.027127 -3.872983 -2.012324 -3.464901 -2.738613 -2.738613 
C -3.464901 -2.012324 -3.872983 -1.027127 -3.872983 0 
C -3.872983 1.027127 -3.464901 2.012324 -2.738613 2.738613 
C -2.012324 3.464901 -1.027127 3.872983 0 3.872983 
z
" id="m74bd9e40cd" style="stroke:#80b1d3;"/>
     </defs>
     <g>
      <use style="fill:#80b1d3;stroke:#80b1d3;" x="164.578125" xlink:href="#m74bd9e40cd" y="98.363281"/>
     </g>
    </g>
    <g id="text_18">
     <text style="font-family:DejaVu Sans;font-size:10px;font-stretch:normal;font-style:normal;font-weight:normal;text-anchor:start;" transform="rotate(-0, 182.578125, 100.988281)" x="182.578125" y="100.988281">M4</text>
    </g>
    <g id="PathCollection_18">
     <defs>
      <path d="M 0 3.872983 
C 1.027127 3.872983 2.012324 3.464901 2.738613 2.738613 
C 3.464901 2.012324 3.872983 1.027127 3.872983 0 
C 3.872983 -1.027127 3.464901 -2.012324 2.738613 -2.738613 
C 2.012324 -3.464901 1.027127 -3.872983 0 -3.872983 
C -1.027127 -3.872983 -2.012324 -3.464901 -2.738613 -2.738613 
C -3.464901 -2.012324 -3.872983 -1.027127 -3.872983 0 
C -3.872983 1.027127 -3.464901 2.012324 -2.738613 2.738613 
C -2.012324 3.464901 -1.027127 3.872983 0 3.872983 
z
" id="m25a6cd3be7" style="stroke:#fdb462;"/>
     </defs>
     <g>
      <use style="fill:#fdb462;stroke:#fdb462;" x="164.578125" xlink:href="#m25a6cd3be7" y="113.041406"/>
     </g>
    </g>
    <g id="text_19">
     <text style="font-family:DejaVu Sans;font-size:10px;font-stretch:normal;font-style:normal;font-weight:normal;text-anchor:start;" transform="rotate(-0, 182.578125, 115.666406)" x="182.578125" y="115.666406">M10</text>
    </g>
    <g id="PathCollection_19">
     <defs>
      <path d="M 0 3.872983 
C 1.027127 3.872983 2.012324 3.464901 2.738613 2.738613 
C 3.464901 2.012324 3.872983 1.027127 3.872983 0 
C 3.872983 -1.027127 3.464901 -2.012324 2.738613 -2.738613 
C 2.012324 -3.464901 1.027127 -3.872983 0 -3.872983 
C -1.027127 -3.872983 -2.012324 -3.464901 -2.738613 -2.738613 
C -3.464901 -2.012324 -3.872983 -1.027127 -3.872983 0 
C -3.872983 1.027127 -3.464901 2.012324 -2.738613 2.738613 
C -2.012324 3.464901 -1.027127 3.872983 0 3.872983 
z
" id="m0b70a070f3" style="stroke:#b3de69;"/>
     </defs>
     <g>
      <use style="fill:#b3de69;stroke:#b3de69;" x="164.578125" xlink:href="#m0b70a070f3" y="127.719531"/>
     </g>
    </g>
    <g id="text_20">
     <text style="font-family:DejaVu Sans;font-size:10px;font-stretch:normal;font-style:normal;font-weight:normal;text-anchor:start;" transform="rotate(-0, 182.578125, 130.344531)" x="182.578125" y="130.344531">M8</text>
    </g>
    <g id="PathCollection_20">
     <defs>
      <path d="M 0 3.872983 
C 1.027127 3.872983 2.012324 3.464901 2.738613 2.738613 
C 3.464901 2.012324 3.872983 1.027127 3.872983 0 
C 3.872983 -1.027127 3.464901 -2.012324 2.738613 -2.738613 
C 2.012324 -3.464901 1.027127 -3.872983 0 -3.872983 
C -1.027127 -3.872983 -2.012324 -3.464901 -2.738613 -2.738613 
C -3.464901 -2.012324 -3.872983 -1.027127 -3.872983 0 
C -3.872983 1.027127 -3.464901 2.012324 -2.738613 2.738613 
C -2.012324 3.464901 -1.027127 3.872983 0 3.872983 
z
" id="m0018ba1457" style="stroke:#fccde5;"/>
     </defs>
     <g>
      <use style="fill:#fccde5;stroke:#fccde5;" x="164.578125" xlink:href="#m0018ba1457" y="142.397656"/>
     </g>
    </g>
    <g id="text_21">
     <text style="font-family:DejaVu Sans;font-size:10px;font-stretch:normal;font-style:normal;font-weight:normal;text-anchor:start;" transform="rotate(-0, 182.578125, 145.022656)" x="182.578125" y="145.022656">M13</text>
    </g>
    <g id="PathCollection_21">
     <defs>
      <path d="M 0 3.872983 
C 1.027127 3.872983 2.012324 3.464901 2.738613 2.738613 
C 3.464901 2.012324 3.872983 1.027127 3.872983 0 
C 3.872983 -1.027127 3.464901 -2.012324 2.738613 -2.738613 
C 2.012324 -3.464901 1.027127 -3.872983 0 -3.872983 
C -1.027127 -3.872983 -2.012324 -3.464901 -2.738613 -2.738613 
C -3.464901 -2.012324 -3.872983 -1.027127 -3.872983 0 
C -3.872983 1.027127 -3.464901 2.012324 -2.738613 2.738613 
C -2.012324 3.464901 -1.027127 3.872983 0 3.872983 
z
" id="m01ceb29be6" style="stroke:#d9d9d9;"/>
     </defs>
     <g>
      <use style="fill:#d9d9d9;stroke:#d9d9d9;" x="164.578125" xlink:href="#m01ceb29be6" y="157.075781"/>
     </g>
    </g>
    <g id="text_22">
     <text style="font-family:DejaVu Sans;font-size:10px;font-stretch:normal;font-style:normal;font-weight:normal;text-anchor:start;" transform="rotate(-0, 182.578125, 159.700781)" x="182.578125" y="159.700781">M14</text>
    </g>
    <g id="PathCollection_22">
     <defs>
      <path d="M 0 3.872983 
C 1.027127 3.872983 2.012324 3.464901 2.738613 2.738613 
C 3.464901 2.012324 3.872983 1.027127 3.872983 0 
C 3.872983 -1.027127 3.464901 -2.012324 2.738613 -2.738613 
C 2.012324 -3.464901 1.027127 -3.872983 0 -3.872983 
C -1.027127 -3.872983 -2.012324 -3.464901 -2.738613 -2.738613 
C -3.464901 -2.012324 -3.872983 -1.027127 -3.872983 0 
C -3.872983 1.027127 -3.464901 2.012324 -2.738613 2.738613 
C -2.012324 3.464901 -1.027127 3.872983 0 3.872983 
z
" id="mb3b6f5eae6" style="stroke:#bc80bd;"/>
     </defs>
     <g>
      <use style="fill:#bc80bd;stroke:#bc80bd;" x="164.578125" xlink:href="#mb3b6f5eae6" y="171.753906"/>
     </g>
    </g>
    <g id="text_23">
     <text style="font-family:DejaVu Sans;font-size:10px;font-stretch:normal;font-style:normal;font-weight:normal;text-anchor:start;" transform="rotate(-0, 182.578125, 174.378906)" x="182.578125" y="174.378906">M6</text>
    </g>
    <g id="PathCollection_23">
     <defs>
      <path d="M 0 3.872983 
C 1.027127 3.872983 2.012324 3.464901 2.738613 2.738613 
C 3.464901 2.012324 3.872983 1.027127 3.872983 0 
C 3.872983 -1.027127 3.464901 -2.012324 2.738613 -2.738613 
C 2.012324 -3.464901 1.027127 -3.872983 0 -3.872983 
C -1.027127 -3.872983 -2.012324 -3.464901 -2.738613 -2.738613 
C -3.464901 -2.012324 -3.872983 -1.027127 -3.872983 0 
C -3.872983 1.027127 -3.464901 2.012324 -2.738613 2.738613 
C -2.012324 3.464901 -1.027127 3.872983 0 3.872983 
z
" id="meea7d7b54d" style="stroke:#ccebc5;"/>
     </defs>
     <g>
      <use style="fill:#ccebc5;stroke:#ccebc5;" x="164.578125" xlink:href="#meea7d7b54d" y="186.432031"/>
     </g>
    </g>
    <g id="text_24">
     <text style="font-family:DejaVu Sans;font-size:10px;font-stretch:normal;font-style:normal;font-weight:normal;text-anchor:start;" transform="rotate(-0, 182.578125, 189.057031)" x="182.578125" y="189.057031">M5</text>
    </g>
   </g>
  </g>
  <g id="axes_2">
   <g id="patch_8">
    <path d="M 260.73125 242.399219 
L 417.15625 242.399219 
L 417.15625 10.999219 
L 260.73125 10.999219 
z
" style="fill:#ffffff;"/>
   </g>
   <g id="PathCollection_24"/>
   <g id="PathCollection_25"/>
   <g id="PathCollection_26"/>
   <g id="PathCollection_27"/>
   <g id="PathCollection_28"/>
   <g id="PathCollection_29"/>
   <g id="PathCollection_30"/>
   <g id="PathCollection_31"/>
   <g id="PathCollection_32"/>
   <g id="PathCollection_33"/>
   <g id="PathCollection_34"/>
   <g id="matplotlib.axis_3">
    <g id="xtick_2">
     <g id="line2d_11">
      <g>
       <use style="stroke:#000000;stroke-width:0.8;" x="338.94375" xlink:href="#m46ac06b7f9" y="242.399219"/>
      </g>
     </g>
     <g id="text_25">
      <text style="font-family:DejaVu Sans;font-size:10px;font-stretch:normal;font-style:normal;font-weight:normal;text-anchor:middle;" transform="rotate(-0, 338.94375, 256.997656)" x="338.94375" y="256.997656">fMOMD</text>
     </g>
    </g>
    <g id="text_26">
     <text style="font-family:DejaVu Sans;font-size:10px;font-stretch:normal;font-style:normal;font-weight:normal;text-anchor:middle;" transform="rotate(-0, 338.94375, 270.675781)" x="338.94375" y="270.675781">Method</text>
    </g>
   </g>
   <g id="matplotlib.axis_4">
    <g id="ytick_10">
     <g id="line2d_12">
      <g>
       <use style="stroke:#000000;stroke-width:0.8;" x="260.73125" xlink:href="#mce654a04a3" y="231.881037"/>
      </g>
     </g>
     <g id="text_27">
      <text style="font-family:DejaVu Sans;font-size:10px;font-stretch:normal;font-style:normal;font-weight:normal;text-anchor:end;" transform="rotate(-0, 253.73125, 235.680256)" x="253.73125" y="235.680256">0.0</text>
     </g>
    </g>
    <g id="ytick_11">
     <g id="line2d_13">
      <g>
       <use style="stroke:#000000;stroke-width:0.8;" x="260.73125" xlink:href="#mce654a04a3" y="189.80831"/>
      </g>
     </g>
     <g id="text_28">
      <text style="font-family:DejaVu Sans;font-size:10px;font-stretch:normal;font-style:normal;font-weight:normal;text-anchor:end;" transform="rotate(-0, 253.73125, 193.607528)" x="253.73125" y="193.607528">0.2</text>
     </g>
    </g>
    <g id="ytick_12">
     <g id="line2d_14">
      <g>
       <use style="stroke:#000000;stroke-width:0.8;" x="260.73125" xlink:href="#mce654a04a3" y="147.735582"/>
      </g>
     </g>
     <g id="text_29">
      <text style="font-family:DejaVu Sans;font-size:10px;font-stretch:normal;font-style:normal;font-weight:normal;text-anchor:end;" transform="rotate(-0, 253.73125, 151.534801)" x="253.73125" y="151.534801">0.4</text>
     </g>
    </g>
    <g id="ytick_13">
     <g id="line2d_15">
      <g>
       <use style="stroke:#000000;stroke-width:0.8;" x="260.73125" xlink:href="#mce654a04a3" y="105.662855"/>
      </g>
     </g>
     <g id="text_30">
      <text style="font-family:DejaVu Sans;font-size:10px;font-stretch:normal;font-style:normal;font-weight:normal;text-anchor:end;" transform="rotate(-0, 253.73125, 109.462074)" x="253.73125" y="109.462074">0.6</text>
     </g>
    </g>
    <g id="ytick_14">
     <g id="line2d_16">
      <g>
       <use style="stroke:#000000;stroke-width:0.8;" x="260.73125" xlink:href="#mce654a04a3" y="63.590128"/>
      </g>
     </g>
     <g id="text_31">
      <text style="font-family:DejaVu Sans;font-size:10px;font-stretch:normal;font-style:normal;font-weight:normal;text-anchor:end;" transform="rotate(-0, 253.73125, 67.389347)" x="253.73125" y="67.389347">0.8</text>
     </g>
    </g>
    <g id="ytick_15">
     <g id="line2d_17">
      <g>
       <use style="stroke:#000000;stroke-width:0.8;" x="260.73125" xlink:href="#mce654a04a3" y="21.517401"/>
      </g>
     </g>
     <g id="text_32">
      <text style="font-family:DejaVu Sans;font-size:10px;font-stretch:normal;font-style:normal;font-weight:normal;text-anchor:end;" transform="rotate(-0, 253.73125, 25.316619)" x="253.73125" y="25.316619">1.0</text>
     </g>
    </g>
    <g id="text_33">
     <text style="font-family:DejaVu Sans;font-size:10px;font-stretch:normal;font-style:normal;font-weight:normal;text-anchor:middle;" transform="rotate(-90, 231.748438, 126.699219)" x="231.748438" y="126.699219">FracInOralSample</text>
    </g>
   </g>
   <g id="patch_9">
    <path d="M 260.73125 242.399219 
L 260.73125 10.999219 
" style="fill:none;stroke:#000000;stroke-linecap:square;stroke-linejoin:miter;stroke-width:0.8;"/>
   </g>
   <g id="patch_10">
    <path d="M 417.15625 242.399219 
L 417.15625 10.999219 
" style="fill:none;stroke:#000000;stroke-linecap:square;stroke-linejoin:miter;stroke-width:0.8;"/>
   </g>
   <g id="patch_11">
    <path d="M 260.73125 242.399219 
L 417.15625 242.399219 
" style="fill:none;stroke:#000000;stroke-linecap:square;stroke-linejoin:miter;stroke-width:0.8;"/>
   </g>
   <g id="patch_12">
    <path d="M 260.73125 10.999219 
L 417.15625 10.999219 
" style="fill:none;stroke:#000000;stroke-linecap:square;stroke-linejoin:miter;stroke-width:0.8;"/>
   </g>
   <g id="PathCollection_35">
    <defs>
     <path d="M 0 5 
C 1.326016 5 2.597899 4.473168 3.535534 3.535534 
C 4.473168 2.597899 5 1.326016 5 -0 
C 5 -1.326016 4.473168 -2.597899 3.535534 -3.535534 
C 2.597899 -4.473168 1.326016 -5 0 -5 
C -1.326016 -5 -2.597899 -4.473168 -3.535534 -3.535534 
C -4.473168 -2.597899 -5 -1.326016 -5 0 
C -5 1.326016 -4.473168 2.597899 -3.535534 3.535534 
C -2.597899 4.473168 -1.326016 5 0 5 
z
" id="C1_0_f322bf603b"/>
    </defs>
    <g clip-path="url(#p7c266c6e5d)">
     <use style="fill:#8dd3c7;stroke:#000000;stroke-width:0.5;" x="337.725773" xlink:href="#C1_0_f322bf603b" y="21.517401"/>
    </g>
    <g clip-path="url(#p7c266c6e5d)">
     <use style="fill:#ffffb3;stroke:#000000;stroke-width:0.5;" x="337.059825" xlink:href="#C1_0_f322bf603b" y="25.07573"/>
    </g>
    <g clip-path="url(#p7c266c6e5d)">
     <use style="fill:#bebada;stroke:#000000;stroke-width:0.5;" x="331.098579" xlink:href="#C1_0_f322bf603b" y="22.005837"/>
    </g>
    <g clip-path="url(#p7c266c6e5d)">
     <use style="fill:#fb8072;stroke:#000000;stroke-width:0.5;" x="341.908585" xlink:href="#C1_0_f322bf603b" y="26.351554"/>
    </g>
    <g clip-path="url(#p7c266c6e5d)">
     <use style="fill:#80b1d3;stroke:#000000;stroke-width:0.5;" x="333.729196" xlink:href="#C1_0_f322bf603b" y="23.352634"/>
    </g>
    <g clip-path="url(#p7c266c6e5d)">
     <use style="fill:#fdb462;stroke:#000000;stroke-width:0.5;" x="347.609673" xlink:href="#C1_0_f322bf603b" y="24.032393"/>
    </g>
    <g clip-path="url(#p7c266c6e5d)">
     <use style="fill:#b3de69;stroke:#000000;stroke-width:0.5;" x="344.105621" xlink:href="#C1_0_f322bf603b" y="231.881037"/>
    </g>
    <g clip-path="url(#p7c266c6e5d)">
     <use style="fill:#fccde5;stroke:#000000;stroke-width:0.5;" x="339.873743" xlink:href="#C1_0_f322bf603b" y="46.193487"/>
    </g>
    <g clip-path="url(#p7c266c6e5d)">
     <use style="fill:#d9d9d9;stroke:#000000;stroke-width:0.5;" x="327.805967" xlink:href="#C1_0_f322bf603b" y="37.670323"/>
    </g>
    <g clip-path="url(#p7c266c6e5d)">
     <use style="fill:#bc80bd;stroke:#000000;stroke-width:0.5;" x="353.940661" xlink:href="#C1_0_f322bf603b" y="21.999929"/>
    </g>
    <g clip-path="url(#p7c266c6e5d)">
     <use style="fill:#ccebc5;stroke:#000000;stroke-width:0.5;" x="352.564218" xlink:href="#C1_0_f322bf603b" y="24.531206"/>
    </g>
   </g>
   <g id="legend_2">
    <g id="patch_13">
     <path d="M 356.803125 195.136719 
L 410.15625 195.136719 
Q 412.15625 195.136719 412.15625 193.136719 
L 412.15625 17.999219 
Q 412.15625 15.999219 410.15625 15.999219 
L 356.803125 15.999219 
Q 354.803125 15.999219 354.803125 17.999219 
L 354.803125 193.136719 
Q 354.803125 195.136719 356.803125 195.136719 
z
" style="fill:#ffffff;opacity:0.8;stroke:#cccccc;stroke-linejoin:miter;"/>
    </g>
    <g id="text_34">
     <text style="font-family:DejaVu Sans;font-size:10px;font-stretch:normal;font-style:normal;font-weight:normal;text-anchor:start;" transform="rotate(-0, 367.25625, 27.597656)" x="367.25625" y="27.597656">Mouse</text>
    </g>
    <g id="PathCollection_36">
     <g>
      <use style="fill:#8dd3c7;stroke:#8dd3c7;" x="368.803125" xlink:href="#md5b85f7087" y="39.650781"/>
     </g>
    </g>
    <g id="text_35">
     <text style="font-family:DejaVu Sans;font-size:10px;font-stretch:normal;font-style:normal;font-weight:normal;text-anchor:start;" transform="rotate(-0, 386.803125, 42.275781)" x="386.803125" y="42.275781">M7</text>
    </g>
    <g id="PathCollection_37">
     <g>
      <use style="fill:#ffffb3;stroke:#ffffb3;" x="368.803125" xlink:href="#mbe4700f9ad" y="54.328906"/>
     </g>
    </g>
    <g id="text_36">
     <text style="font-family:DejaVu Sans;font-size:10px;font-stretch:normal;font-style:normal;font-weight:normal;text-anchor:start;" transform="rotate(-0, 386.803125, 56.953906)" x="386.803125" y="56.953906">M12</text>
    </g>
    <g id="PathCollection_38">
     <g>
      <use style="fill:#bebada;stroke:#bebada;" x="368.803125" xlink:href="#m8a6897ef8c" y="69.007031"/>
     </g>
    </g>
    <g id="text_37">
     <text style="font-family:DejaVu Sans;font-size:10px;font-stretch:normal;font-style:normal;font-weight:normal;text-anchor:start;" transform="rotate(-0, 386.803125, 71.632031)" x="386.803125" y="71.632031">M15</text>
    </g>
    <g id="PathCollection_39">
     <g>
      <use style="fill:#fb8072;stroke:#fb8072;" x="368.803125" xlink:href="#m85352752c0" y="83.685156"/>
     </g>
    </g>
    <g id="text_38">
     <text style="font-family:DejaVu Sans;font-size:10px;font-stretch:normal;font-style:normal;font-weight:normal;text-anchor:start;" transform="rotate(-0, 386.803125, 86.310156)" x="386.803125" y="86.310156">M9</text>
    </g>
    <g id="PathCollection_40">
     <g>
      <use style="fill:#80b1d3;stroke:#80b1d3;" x="368.803125" xlink:href="#m74bd9e40cd" y="98.363281"/>
     </g>
    </g>
    <g id="text_39">
     <text style="font-family:DejaVu Sans;font-size:10px;font-stretch:normal;font-style:normal;font-weight:normal;text-anchor:start;" transform="rotate(-0, 386.803125, 100.988281)" x="386.803125" y="100.988281">M4</text>
    </g>
    <g id="PathCollection_41">
     <g>
      <use style="fill:#fdb462;stroke:#fdb462;" x="368.803125" xlink:href="#m25a6cd3be7" y="113.041406"/>
     </g>
    </g>
    <g id="text_40">
     <text style="font-family:DejaVu Sans;font-size:10px;font-stretch:normal;font-style:normal;font-weight:normal;text-anchor:start;" transform="rotate(-0, 386.803125, 115.666406)" x="386.803125" y="115.666406">M10</text>
    </g>
    <g id="PathCollection_42">
     <g>
      <use style="fill:#b3de69;stroke:#b3de69;" x="368.803125" xlink:href="#m0b70a070f3" y="127.719531"/>
     </g>
    </g>
    <g id="text_41">
     <text style="font-family:DejaVu Sans;font-size:10px;font-stretch:normal;font-style:normal;font-weight:normal;text-anchor:start;" transform="rotate(-0, 386.803125, 130.344531)" x="386.803125" y="130.344531">M8</text>
    </g>
    <g id="PathCollection_43">
     <g>
      <use style="fill:#fccde5;stroke:#fccde5;" x="368.803125" xlink:href="#m0018ba1457" y="142.397656"/>
     </g>
    </g>
    <g id="text_42">
     <text style="font-family:DejaVu Sans;font-size:10px;font-stretch:normal;font-style:normal;font-weight:normal;text-anchor:start;" transform="rotate(-0, 386.803125, 145.022656)" x="386.803125" y="145.022656">M13</text>
    </g>
    <g id="PathCollection_44">
     <g>
      <use style="fill:#d9d9d9;stroke:#d9d9d9;" x="368.803125" xlink:href="#m01ceb29be6" y="157.075781"/>
     </g>
    </g>
    <g id="text_43">
     <text style="font-family:DejaVu Sans;font-size:10px;font-stretch:normal;font-style:normal;font-weight:normal;text-anchor:start;" transform="rotate(-0, 386.803125, 159.700781)" x="386.803125" y="159.700781">M14</text>
    </g>
    <g id="PathCollection_45">
     <g>
      <use style="fill:#bc80bd;stroke:#bc80bd;" x="368.803125" xlink:href="#mb3b6f5eae6" y="171.753906"/>
     </g>
    </g>
    <g id="text_44">
     <text style="font-family:DejaVu Sans;font-size:10px;font-stretch:normal;font-style:normal;font-weight:normal;text-anchor:start;" transform="rotate(-0, 386.803125, 174.378906)" x="386.803125" y="174.378906">M6</text>
    </g>
    <g id="PathCollection_46">
     <g>
      <use style="fill:#ccebc5;stroke:#ccebc5;" x="368.803125" xlink:href="#meea7d7b54d" y="186.432031"/>
     </g>
    </g>
    <g id="text_45">
     <text style="font-family:DejaVu Sans;font-size:10px;font-stretch:normal;font-style:normal;font-weight:normal;text-anchor:start;" transform="rotate(-0, 386.803125, 189.057031)" x="386.803125" y="189.057031">M5</text>
    </g>
   </g>
  </g>
 </g>
 <defs>
  <clipPath id="p8fed798157">
   <rect height="231.4" width="156.425" x="56.50625" y="10.999219"/>
  </clipPath>
  <clipPath id="p7c266c6e5d">
   <rect height="231.4" width="156.425" x="260.73125" y="10.999219"/>
  </clipPath>
 </defs>
</svg>
