<?xml version="1.0" encoding="utf-8" standalone="no"?>
<!DOCTYPE svg PUBLIC "-//W3C//DTD SVG 1.1//EN"
  "http://www.w3.org/Graphics/SVG/1.1/DTD/svg11.dtd">
<svg xmlns:xlink="http://www.w3.org/1999/xlink" width="424.48125pt" height="279.955469pt" viewBox="0 0 424.48125 279.955469" xmlns="http://www.w3.org/2000/svg" version="1.1">
 <metadata>
  <rdf:RDF xmlns:dc="http://purl.org/dc/elements/1.1/" xmlns:cc="http://creativecommons.org/ns#" xmlns:rdf="http://www.w3.org/1999/02/22-rdf-syntax-ns#">
   <cc:Work>
    <dc:type rdf:resource="http://purl.org/dc/dcmitype/StillImage"/>
    <dc:date>2022-08-16T04:56:03.035737</dc:date>
    <dc:format>image/svg+xml</dc:format>
    <dc:creator>
     <cc:Agent>
      <dc:title>Matplotlib v3.5.1, https://matplotlib.org/</dc:title>
     </cc:Agent>
    </dc:creator>
   </cc:Work>
  </rdf:RDF>
 </metadata>
 <defs>
  <style type="text/css">*{stroke-linejoin: round; stroke-linecap: butt}</style>
 </defs>
 <g id="figure_1">
  <g id="patch_1">
   <path d="M 0 279.955469 
L 424.48125 279.955469 
L 424.48125 0 
L 0 0 
L 0 279.955469 
z
" style="fill: none"/>
  </g>
  <g id="axes_1">
   <g id="patch_2">
    <path d="M 56.50625 242.399219 
L 213.05625 242.399219 
L 213.05625 10.999219 
L 56.50625 10.999219 
z
" style="fill: #ffffff"/>
   </g>
   <g id="PathCollection_1"/>
   <g id="PathCollection_2"/>
   <g id="PathCollection_3"/>
   <g id="PathCollection_4"/>
   <g id="PathCollection_5"/>
   <g id="PathCollection_6"/>
   <g id="PathCollection_7"/>
   <g id="PathCollection_8"/>
   <g id="PathCollection_9"/>
   <g id="PathCollection_10"/>
   <g id="PathCollection_11"/>
   <g id="matplotlib.axis_1">
    <g id="xtick_1">
     <g id="line2d_1">
      <defs>
       <path id="m7acef5cc45" d="M 0 0 
L 0 3.5 
" style="stroke: #000000; stroke-width: 0.8"/>
      </defs>
      <g>
       <use xlink:href="#m7acef5cc45" x="134.78125" y="242.399219" style="stroke: #000000; stroke-width: 0.8"/>
      </g>
     </g>
     <g id="text_1">
      <text style="font: 10px 'sans-serif'; text-anchor: middle" x="134.78125" y="256.997656" transform="rotate(-0, 134.78125, 256.997656)">fMOMD</text>
     </g>
    </g>
    <g id="text_2">
     <text style="font: 10px 'sans-serif'; text-anchor: middle" x="134.78125" y="270.675781" transform="rotate(-0, 134.78125, 270.675781)">Method</text>
    </g>
   </g>
   <g id="matplotlib.axis_2">
    <g id="ytick_1">
     <g id="line2d_2">
      <defs>
       <path id="mdeea023baa" d="M 0 0 
L -3.5 0 
" style="stroke: #000000; stroke-width: 0.8"/>
      </defs>
      <g>
       <use xlink:href="#mdeea023baa" x="56.50625" y="221.362855" style="stroke: #000000; stroke-width: 0.8"/>
      </g>
     </g>
     <g id="text_3">
      <text style="font: 10px 'sans-serif'; text-anchor: end" x="49.50625" y="225.162074" transform="rotate(-0, 49.50625, 225.162074)">0.000</text>
     </g>
    </g>
    <g id="ytick_2">
     <g id="line2d_3">
      <g>
       <use xlink:href="#mdeea023baa" x="56.50625" y="195.067401" style="stroke: #000000; stroke-width: 0.8"/>
      </g>
     </g>
     <g id="text_4">
      <text style="font: 10px 'sans-serif'; text-anchor: end" x="49.50625" y="198.866619" transform="rotate(-0, 49.50625, 198.866619)">0.025</text>
     </g>
    </g>
    <g id="ytick_3">
     <g id="line2d_4">
      <g>
       <use xlink:href="#mdeea023baa" x="56.50625" y="168.771946" style="stroke: #000000; stroke-width: 0.8"/>
      </g>
     </g>
     <g id="text_5">
      <text style="font: 10px 'sans-serif'; text-anchor: end" x="49.50625" y="172.571165" transform="rotate(-0, 49.50625, 172.571165)">0.050</text>
     </g>
    </g>
    <g id="ytick_4">
     <g id="line2d_5">
      <g>
       <use xlink:href="#mdeea023baa" x="56.50625" y="142.476491" style="stroke: #000000; stroke-width: 0.8"/>
      </g>
     </g>
     <g id="text_6">
      <text style="font: 10px 'sans-serif'; text-anchor: end" x="49.50625" y="146.27571" transform="rotate(-0, 49.50625, 146.27571)">0.075</text>
     </g>
    </g>
    <g id="ytick_5">
     <g id="line2d_6">
      <g>
       <use xlink:href="#mdeea023baa" x="56.50625" y="116.181037" style="stroke: #000000; stroke-width: 0.8"/>
      </g>
     </g>
     <g id="text_7">
      <text style="font: 10px 'sans-serif'; text-anchor: end" x="49.50625" y="119.980256" transform="rotate(-0, 49.50625, 119.980256)">0.100</text>
     </g>
    </g>
    <g id="ytick_6">
     <g id="line2d_7">
      <g>
       <use xlink:href="#mdeea023baa" x="56.50625" y="89.885582" style="stroke: #000000; stroke-width: 0.8"/>
      </g>
     </g>
     <g id="text_8">
      <text style="font: 10px 'sans-serif'; text-anchor: end" x="49.50625" y="93.684801" transform="rotate(-0, 49.50625, 93.684801)">0.125</text>
     </g>
    </g>
    <g id="ytick_7">
     <g id="line2d_8">
      <g>
       <use xlink:href="#mdeea023baa" x="56.50625" y="63.590128" style="stroke: #000000; stroke-width: 0.8"/>
      </g>
     </g>
     <g id="text_9">
      <text style="font: 10px 'sans-serif'; text-anchor: end" x="49.50625" y="67.389347" transform="rotate(-0, 49.50625, 67.389347)">0.150</text>
     </g>
    </g>
    <g id="ytick_8">
     <g id="line2d_9">
      <g>
       <use xlink:href="#mdeea023baa" x="56.50625" y="37.294673" style="stroke: #000000; stroke-width: 0.8"/>
      </g>
     </g>
     <g id="text_10">
      <text style="font: 10px 'sans-serif'; text-anchor: end" x="49.50625" y="41.093892" transform="rotate(-0, 49.50625, 41.093892)">0.175</text>
     </g>
    </g>
    <g id="ytick_9">
     <g id="line2d_10">
      <g>
       <use xlink:href="#mdeea023baa" x="56.50625" y="10.999219" style="stroke: #000000; stroke-width: 0.8"/>
      </g>
     </g>
     <g id="text_11">
      <text style="font: 10px 'sans-serif'; text-anchor: end" x="49.50625" y="14.798438" transform="rotate(-0, 49.50625, 14.798438)">0.200</text>
     </g>
    </g>
    <g id="text_12">
     <text style="font: 10px 'sans-serif'; text-anchor: middle" x="14.798438" y="126.699219" transform="rotate(-90, 14.798438, 126.699219)">fMOMD</text>
    </g>
   </g>
   <g id="patch_3">
    <path d="M 56.50625 242.399219 
L 56.50625 10.999219 
" style="fill: none; stroke: #000000; stroke-width: 0.8; stroke-linejoin: miter; stroke-linecap: square"/>
   </g>
   <g id="patch_4">
    <path d="M 213.05625 242.399219 
L 213.05625 10.999219 
" style="fill: none; stroke: #000000; stroke-width: 0.8; stroke-linejoin: miter; stroke-linecap: square"/>
   </g>
   <g id="patch_5">
    <path d="M 56.50625 242.399219 
L 213.05625 242.399219 
" style="fill: none; stroke: #000000; stroke-width: 0.8; stroke-linejoin: miter; stroke-linecap: square"/>
   </g>
   <g id="patch_6">
    <path d="M 56.50625 10.999219 
L 213.05625 10.999219 
" style="fill: none; stroke: #000000; stroke-width: 0.8; stroke-linejoin: miter; stroke-linecap: square"/>
   </g>
   <g id="PathCollection_12">
    <defs>
     <path id="C0_0_3dcd245416" d="M 0 5 
C 1.326016 5 2.597899 4.473168 3.535534 3.535534 
C 4.473168 2.597899 5 1.326016 5 -0 
C 5 -1.326016 4.473168 -2.597899 3.535534 -3.535534 
C 2.597899 -4.473168 1.326016 -5 0 -5 
C -1.326016 -5 -2.597899 -4.473168 -3.535534 -3.535534 
C -4.473168 -2.597899 -5 -1.326016 -5 0 
C -5 1.326016 -4.473168 2.597899 -3.535534 3.535534 
C -2.597899 4.473168 -1.326016 5 0 5 
z
"/>
    </defs>
    <g clip-path="url(#pdde36cc0b2)">
     <use xlink:href="#C0_0_3dcd245416" x="136.21079" y="170.968547" style="fill: #8dd3c7; stroke: #000000; stroke-width: 0.5"/>
    </g>
    <g clip-path="url(#pdde36cc0b2)">
     <use xlink:href="#C0_0_3dcd245416" x="138.960511" y="175.351802" style="fill: #ffffb3; stroke: #000000; stroke-width: 0.5"/>
    </g>
    <g clip-path="url(#pdde36cc0b2)">
     <use xlink:href="#C0_0_3dcd245416" x="139.34183" y="211.557912" style="fill: #bebada; stroke: #000000; stroke-width: 0.5"/>
    </g>
    <g clip-path="url(#pdde36cc0b2)">
     <use xlink:href="#C0_0_3dcd245416" x="120.954688" y="211.002359" style="fill: #fb8072; stroke: #000000; stroke-width: 0.5"/>
    </g>
    <g clip-path="url(#pdde36cc0b2)">
     <use xlink:href="#C0_0_3dcd245416" x="140.226909" y="42.257645" style="fill: #80b1d3; stroke: #000000; stroke-width: 0.5"/>
    </g>
    <g clip-path="url(#pdde36cc0b2)">
     <use xlink:href="#C0_0_3dcd245416" x="121.9046" y="176.396956" style="fill: #fdb462; stroke: #000000; stroke-width: 0.5"/>
    </g>
    <g clip-path="url(#pdde36cc0b2)">
     <use xlink:href="#C0_0_3dcd245416" x="139.468016" y="164.623578" style="fill: #b3de69; stroke: #000000; stroke-width: 0.5"/>
    </g>
    <g clip-path="url(#pdde36cc0b2)">
     <use xlink:href="#C0_0_3dcd245416" x="148.221657" y="181.493101" style="fill: #fccde5; stroke: #000000; stroke-width: 0.5"/>
    </g>
    <g clip-path="url(#pdde36cc0b2)">
     <use xlink:href="#C0_0_3dcd245416" x="120.656715" y="214.83424" style="fill: #d9d9d9; stroke: #000000; stroke-width: 0.5"/>
    </g>
    <g clip-path="url(#pdde36cc0b2)">
     <use xlink:href="#C0_0_3dcd245416" x="149.220798" y="166.42528" style="fill: #bc80bd; stroke: #000000; stroke-width: 0.5"/>
    </g>
    <g clip-path="url(#pdde36cc0b2)">
     <use xlink:href="#C0_0_3dcd245416" x="143.485488" y="191.942547" style="fill: #ccebc5; stroke: #000000; stroke-width: 0.5"/>
    </g>
   </g>
   <g id="legend_1">
    <g id="patch_7">
     <path d="M 152.703125 195.136719 
L 206.05625 195.136719 
Q 208.05625 195.136719 208.05625 193.136719 
L 208.05625 17.999219 
Q 208.05625 15.999219 206.05625 15.999219 
L 152.703125 15.999219 
Q 150.703125 15.999219 150.703125 17.999219 
L 150.703125 193.136719 
Q 150.703125 195.136719 152.703125 195.136719 
z
" style="fill: #ffffff; opacity: 0.8; stroke: #cccccc; stroke-linejoin: miter"/>
    </g>
    <g id="text_13">
     <text style="font: 10px 'sans-serif'; text-anchor: start" x="163.15625" y="27.597656" transform="rotate(-0, 163.15625, 27.597656)">Mouse</text>
    </g>
    <g id="PathCollection_13">
     <defs>
      <path id="m29d52cfc40" d="M 0 3.872983 
C 1.027127 3.872983 2.012324 3.464901 2.738613 2.738613 
C 3.464901 2.012324 3.872983 1.027127 3.872983 0 
C 3.872983 -1.027127 3.464901 -2.012324 2.738613 -2.738613 
C 2.012324 -3.464901 1.027127 -3.872983 0 -3.872983 
C -1.027127 -3.872983 -2.012324 -3.464901 -2.738613 -2.738613 
C -3.464901 -2.012324 -3.872983 -1.027127 -3.872983 0 
C -3.872983 1.027127 -3.464901 2.012324 -2.738613 2.738613 
C -2.012324 3.464901 -1.027127 3.872983 0 3.872983 
z
" style="stroke: #8dd3c7"/>
     </defs>
     <g>
      <use xlink:href="#m29d52cfc40" x="164.703125" y="39.650781" style="fill: #8dd3c7; stroke: #8dd3c7"/>
     </g>
    </g>
    <g id="text_14">
     <text style="font: 10px 'sans-serif'; text-anchor: start" x="182.703125" y="42.275781" transform="rotate(-0, 182.703125, 42.275781)">M10</text>
    </g>
    <g id="PathCollection_14">
     <defs>
      <path id="m1af3b09afd" d="M 0 3.872983 
C 1.027127 3.872983 2.012324 3.464901 2.738613 2.738613 
C 3.464901 2.012324 3.872983 1.027127 3.872983 0 
C 3.872983 -1.027127 3.464901 -2.012324 2.738613 -2.738613 
C 2.012324 -3.464901 1.027127 -3.872983 0 -3.872983 
C -1.027127 -3.872983 -2.012324 -3.464901 -2.738613 -2.738613 
C -3.464901 -2.012324 -3.872983 -1.027127 -3.872983 0 
C -3.872983 1.027127 -3.464901 2.012324 -2.738613 2.738613 
C -2.012324 3.464901 -1.027127 3.872983 0 3.872983 
z
" style="stroke: #ffffb3"/>
     </defs>
     <g>
      <use xlink:href="#m1af3b09afd" x="164.703125" y="54.328906" style="fill: #ffffb3; stroke: #ffffb3"/>
     </g>
    </g>
    <g id="text_15">
     <text style="font: 10px 'sans-serif'; text-anchor: start" x="182.703125" y="56.953906" transform="rotate(-0, 182.703125, 56.953906)">M5</text>
    </g>
    <g id="PathCollection_15">
     <defs>
      <path id="m528a2c10ac" d="M 0 3.872983 
C 1.027127 3.872983 2.012324 3.464901 2.738613 2.738613 
C 3.464901 2.012324 3.872983 1.027127 3.872983 0 
C 3.872983 -1.027127 3.464901 -2.012324 2.738613 -2.738613 
C 2.012324 -3.464901 1.027127 -3.872983 0 -3.872983 
C -1.027127 -3.872983 -2.012324 -3.464901 -2.738613 -2.738613 
C -3.464901 -2.012324 -3.872983 -1.027127 -3.872983 0 
C -3.872983 1.027127 -3.464901 2.012324 -2.738613 2.738613 
C -2.012324 3.464901 -1.027127 3.872983 0 3.872983 
z
" style="stroke: #bebada"/>
     </defs>
     <g>
      <use xlink:href="#m528a2c10ac" x="164.703125" y="69.007031" style="fill: #bebada; stroke: #bebada"/>
     </g>
    </g>
    <g id="text_16">
     <text style="font: 10px 'sans-serif'; text-anchor: start" x="182.703125" y="71.632031" transform="rotate(-0, 182.703125, 71.632031)">M9</text>
    </g>
    <g id="PathCollection_16">
     <defs>
      <path id="ma8632e3062" d="M 0 3.872983 
C 1.027127 3.872983 2.012324 3.464901 2.738613 2.738613 
C 3.464901 2.012324 3.872983 1.027127 3.872983 0 
C 3.872983 -1.027127 3.464901 -2.012324 2.738613 -2.738613 
C 2.012324 -3.464901 1.027127 -3.872983 0 -3.872983 
C -1.027127 -3.872983 -2.012324 -3.464901 -2.738613 -2.738613 
C -3.464901 -2.012324 -3.872983 -1.027127 -3.872983 0 
C -3.872983 1.027127 -3.464901 2.012324 -2.738613 2.738613 
C -2.012324 3.464901 -1.027127 3.872983 0 3.872983 
z
" style="stroke: #fb8072"/>
     </defs>
     <g>
      <use xlink:href="#ma8632e3062" x="164.703125" y="83.685156" style="fill: #fb8072; stroke: #fb8072"/>
     </g>
    </g>
    <g id="text_17">
     <text style="font: 10px 'sans-serif'; text-anchor: start" x="182.703125" y="86.310156" transform="rotate(-0, 182.703125, 86.310156)">M13</text>
    </g>
    <g id="PathCollection_17">
     <defs>
      <path id="md907af00e4" d="M 0 3.872983 
C 1.027127 3.872983 2.012324 3.464901 2.738613 2.738613 
C 3.464901 2.012324 3.872983 1.027127 3.872983 0 
C 3.872983 -1.027127 3.464901 -2.012324 2.738613 -2.738613 
C 2.012324 -3.464901 1.027127 -3.872983 0 -3.872983 
C -1.027127 -3.872983 -2.012324 -3.464901 -2.738613 -2.738613 
C -3.464901 -2.012324 -3.872983 -1.027127 -3.872983 0 
C -3.872983 1.027127 -3.464901 2.012324 -2.738613 2.738613 
C -2.012324 3.464901 -1.027127 3.872983 0 3.872983 
z
" style="stroke: #80b1d3"/>
     </defs>
     <g>
      <use xlink:href="#md907af00e4" x="164.703125" y="98.363281" style="fill: #80b1d3; stroke: #80b1d3"/>
     </g>
    </g>
    <g id="text_18">
     <text style="font: 10px 'sans-serif'; text-anchor: start" x="182.703125" y="100.988281" transform="rotate(-0, 182.703125, 100.988281)">M6</text>
    </g>
    <g id="PathCollection_18">
     <defs>
      <path id="m304f51f9a0" d="M 0 3.872983 
C 1.027127 3.872983 2.012324 3.464901 2.738613 2.738613 
C 3.464901 2.012324 3.872983 1.027127 3.872983 0 
C 3.872983 -1.027127 3.464901 -2.012324 2.738613 -2.738613 
C 2.012324 -3.464901 1.027127 -3.872983 0 -3.872983 
C -1.027127 -3.872983 -2.012324 -3.464901 -2.738613 -2.738613 
C -3.464901 -2.012324 -3.872983 -1.027127 -3.872983 0 
C -3.872983 1.027127 -3.464901 2.012324 -2.738613 2.738613 
C -2.012324 3.464901 -1.027127 3.872983 0 3.872983 
z
" style="stroke: #fdb462"/>
     </defs>
     <g>
      <use xlink:href="#m304f51f9a0" x="164.703125" y="113.041406" style="fill: #fdb462; stroke: #fdb462"/>
     </g>
    </g>
    <g id="text_19">
     <text style="font: 10px 'sans-serif'; text-anchor: start" x="182.703125" y="115.666406" transform="rotate(-0, 182.703125, 115.666406)">M7</text>
    </g>
    <g id="PathCollection_19">
     <defs>
      <path id="mc6968bbb10" d="M 0 3.872983 
C 1.027127 3.872983 2.012324 3.464901 2.738613 2.738613 
C 3.464901 2.012324 3.872983 1.027127 3.872983 0 
C 3.872983 -1.027127 3.464901 -2.012324 2.738613 -2.738613 
C 2.012324 -3.464901 1.027127 -3.872983 0 -3.872983 
C -1.027127 -3.872983 -2.012324 -3.464901 -2.738613 -2.738613 
C -3.464901 -2.012324 -3.872983 -1.027127 -3.872983 0 
C -3.872983 1.027127 -3.464901 2.012324 -2.738613 2.738613 
C -2.012324 3.464901 -1.027127 3.872983 0 3.872983 
z
" style="stroke: #b3de69"/>
     </defs>
     <g>
      <use xlink:href="#mc6968bbb10" x="164.703125" y="127.719531" style="fill: #b3de69; stroke: #b3de69"/>
     </g>
    </g>
    <g id="text_20">
     <text style="font: 10px 'sans-serif'; text-anchor: start" x="182.703125" y="130.344531" transform="rotate(-0, 182.703125, 130.344531)">M4</text>
    </g>
    <g id="PathCollection_20">
     <defs>
      <path id="m320c687f68" d="M 0 3.872983 
C 1.027127 3.872983 2.012324 3.464901 2.738613 2.738613 
C 3.464901 2.012324 3.872983 1.027127 3.872983 0 
C 3.872983 -1.027127 3.464901 -2.012324 2.738613 -2.738613 
C 2.012324 -3.464901 1.027127 -3.872983 0 -3.872983 
C -1.027127 -3.872983 -2.012324 -3.464901 -2.738613 -2.738613 
C -3.464901 -2.012324 -3.872983 -1.027127 -3.872983 0 
C -3.872983 1.027127 -3.464901 2.012324 -2.738613 2.738613 
C -2.012324 3.464901 -1.027127 3.872983 0 3.872983 
z
" style="stroke: #fccde5"/>
     </defs>
     <g>
      <use xlink:href="#m320c687f68" x="164.703125" y="142.397656" style="fill: #fccde5; stroke: #fccde5"/>
     </g>
    </g>
    <g id="text_21">
     <text style="font: 10px 'sans-serif'; text-anchor: start" x="182.703125" y="145.022656" transform="rotate(-0, 182.703125, 145.022656)">M8</text>
    </g>
    <g id="PathCollection_21">
     <defs>
      <path id="me33f3508ed" d="M 0 3.872983 
C 1.027127 3.872983 2.012324 3.464901 2.738613 2.738613 
C 3.464901 2.012324 3.872983 1.027127 3.872983 0 
C 3.872983 -1.027127 3.464901 -2.012324 2.738613 -2.738613 
C 2.012324 -3.464901 1.027127 -3.872983 0 -3.872983 
C -1.027127 -3.872983 -2.012324 -3.464901 -2.738613 -2.738613 
C -3.464901 -2.012324 -3.872983 -1.027127 -3.872983 0 
C -3.872983 1.027127 -3.464901 2.012324 -2.738613 2.738613 
C -2.012324 3.464901 -1.027127 3.872983 0 3.872983 
z
" style="stroke: #d9d9d9"/>
     </defs>
     <g>
      <use xlink:href="#me33f3508ed" x="164.703125" y="157.075781" style="fill: #d9d9d9; stroke: #d9d9d9"/>
     </g>
    </g>
    <g id="text_22">
     <text style="font: 10px 'sans-serif'; text-anchor: start" x="182.703125" y="159.700781" transform="rotate(-0, 182.703125, 159.700781)">M14</text>
    </g>
    <g id="PathCollection_22">
     <defs>
      <path id="m8e96bda722" d="M 0 3.872983 
C 1.027127 3.872983 2.012324 3.464901 2.738613 2.738613 
C 3.464901 2.012324 3.872983 1.027127 3.872983 0 
C 3.872983 -1.027127 3.464901 -2.012324 2.738613 -2.738613 
C 2.012324 -3.464901 1.027127 -3.872983 0 -3.872983 
C -1.027127 -3.872983 -2.012324 -3.464901 -2.738613 -2.738613 
C -3.464901 -2.012324 -3.872983 -1.027127 -3.872983 0 
C -3.872983 1.027127 -3.464901 2.012324 -2.738613 2.738613 
C -2.012324 3.464901 -1.027127 3.872983 0 3.872983 
z
" style="stroke: #bc80bd"/>
     </defs>
     <g>
      <use xlink:href="#m8e96bda722" x="164.703125" y="171.753906" style="fill: #bc80bd; stroke: #bc80bd"/>
     </g>
    </g>
    <g id="text_23">
     <text style="font: 10px 'sans-serif'; text-anchor: start" x="182.703125" y="174.378906" transform="rotate(-0, 182.703125, 174.378906)">M15</text>
    </g>
    <g id="PathCollection_23">
     <defs>
      <path id="m4587f99eaa" d="M 0 3.872983 
C 1.027127 3.872983 2.012324 3.464901 2.738613 2.738613 
C 3.464901 2.012324 3.872983 1.027127 3.872983 0 
C 3.872983 -1.027127 3.464901 -2.012324 2.738613 -2.738613 
C 2.012324 -3.464901 1.027127 -3.872983 0 -3.872983 
C -1.027127 -3.872983 -2.012324 -3.464901 -2.738613 -2.738613 
C -3.464901 -2.012324 -3.872983 -1.027127 -3.872983 0 
C -3.872983 1.027127 -3.464901 2.012324 -2.738613 2.738613 
C -2.012324 3.464901 -1.027127 3.872983 0 3.872983 
z
" style="stroke: #ccebc5"/>
     </defs>
     <g>
      <use xlink:href="#m4587f99eaa" x="164.703125" y="186.432031" style="fill: #ccebc5; stroke: #ccebc5"/>
     </g>
    </g>
    <g id="text_24">
     <text style="font: 10px 'sans-serif'; text-anchor: start" x="182.703125" y="189.057031" transform="rotate(-0, 182.703125, 189.057031)">M12</text>
    </g>
   </g>
  </g>
  <g id="axes_2">
   <g id="patch_8">
    <path d="M 260.73125 242.399219 
L 417.28125 242.399219 
L 417.28125 10.999219 
L 260.73125 10.999219 
z
" style="fill: #ffffff"/>
   </g>
   <g id="PathCollection_24"/>
   <g id="PathCollection_25"/>
   <g id="PathCollection_26"/>
   <g id="PathCollection_27"/>
   <g id="PathCollection_28"/>
   <g id="PathCollection_29"/>
   <g id="PathCollection_30"/>
   <g id="PathCollection_31"/>
   <g id="PathCollection_32"/>
   <g id="PathCollection_33"/>
   <g id="PathCollection_34"/>
   <g id="matplotlib.axis_3">
    <g id="xtick_2">
     <g id="line2d_11">
      <g>
       <use xlink:href="#m7acef5cc45" x="339.00625" y="242.399219" style="stroke: #000000; stroke-width: 0.8"/>
      </g>
     </g>
     <g id="text_25">
      <text style="font: 10px 'sans-serif'; text-anchor: middle" x="339.00625" y="256.997656" transform="rotate(-0, 339.00625, 256.997656)">fMOMD</text>
     </g>
    </g>
    <g id="text_26">
     <text style="font: 10px 'sans-serif'; text-anchor: middle" x="339.00625" y="270.675781" transform="rotate(-0, 339.00625, 270.675781)">Method</text>
    </g>
   </g>
   <g id="matplotlib.axis_4">
    <g id="ytick_10">
     <g id="line2d_12">
      <g>
       <use xlink:href="#mdeea023baa" x="260.73125" y="231.881037" style="stroke: #000000; stroke-width: 0.8"/>
      </g>
     </g>
     <g id="text_27">
      <text style="font: 10px 'sans-serif'; text-anchor: end" x="253.73125" y="235.680256" transform="rotate(-0, 253.73125, 235.680256)">0.0</text>
     </g>
    </g>
    <g id="ytick_11">
     <g id="line2d_13">
      <g>
       <use xlink:href="#mdeea023baa" x="260.73125" y="189.80831" style="stroke: #000000; stroke-width: 0.8"/>
      </g>
     </g>
     <g id="text_28">
      <text style="font: 10px 'sans-serif'; text-anchor: end" x="253.73125" y="193.607528" transform="rotate(-0, 253.73125, 193.607528)">0.2</text>
     </g>
    </g>
    <g id="ytick_12">
     <g id="line2d_14">
      <g>
       <use xlink:href="#mdeea023baa" x="260.73125" y="147.735582" style="stroke: #000000; stroke-width: 0.8"/>
      </g>
     </g>
     <g id="text_29">
      <text style="font: 10px 'sans-serif'; text-anchor: end" x="253.73125" y="151.534801" transform="rotate(-0, 253.73125, 151.534801)">0.4</text>
     </g>
    </g>
    <g id="ytick_13">
     <g id="line2d_15">
      <g>
       <use xlink:href="#mdeea023baa" x="260.73125" y="105.662855" style="stroke: #000000; stroke-width: 0.8"/>
      </g>
     </g>
     <g id="text_30">
      <text style="font: 10px 'sans-serif'; text-anchor: end" x="253.73125" y="109.462074" transform="rotate(-0, 253.73125, 109.462074)">0.6</text>
     </g>
    </g>
    <g id="ytick_14">
     <g id="line2d_16">
      <g>
       <use xlink:href="#mdeea023baa" x="260.73125" y="63.590128" style="stroke: #000000; stroke-width: 0.8"/>
      </g>
     </g>
     <g id="text_31">
      <text style="font: 10px 'sans-serif'; text-anchor: end" x="253.73125" y="67.389347" transform="rotate(-0, 253.73125, 67.389347)">0.8</text>
     </g>
    </g>
    <g id="ytick_15">
     <g id="line2d_17">
      <g>
       <use xlink:href="#mdeea023baa" x="260.73125" y="21.517401" style="stroke: #000000; stroke-width: 0.8"/>
      </g>
     </g>
     <g id="text_32">
      <text style="font: 10px 'sans-serif'; text-anchor: end" x="253.73125" y="25.316619" transform="rotate(-0, 253.73125, 25.316619)">1.0</text>
     </g>
    </g>
    <g id="text_33">
     <text style="font: 10px 'sans-serif'; text-anchor: middle" x="231.748438" y="126.699219" transform="rotate(-90, 231.748438, 126.699219)">FracInOralSample</text>
    </g>
   </g>
   <g id="patch_9">
    <path d="M 260.73125 242.399219 
L 260.73125 10.999219 
" style="fill: none; stroke: #000000; stroke-width: 0.8; stroke-linejoin: miter; stroke-linecap: square"/>
   </g>
   <g id="patch_10">
    <path d="M 417.28125 242.399219 
L 417.28125 10.999219 
" style="fill: none; stroke: #000000; stroke-width: 0.8; stroke-linejoin: miter; stroke-linecap: square"/>
   </g>
   <g id="patch_11">
    <path d="M 260.73125 242.399219 
L 417.28125 242.399219 
" style="fill: none; stroke: #000000; stroke-width: 0.8; stroke-linejoin: miter; stroke-linecap: square"/>
   </g>
   <g id="patch_12">
    <path d="M 260.73125 10.999219 
L 417.28125 10.999219 
" style="fill: none; stroke: #000000; stroke-width: 0.8; stroke-linejoin: miter; stroke-linecap: square"/>
   </g>
   <g id="PathCollection_35">
    <defs>
     <path id="C1_0_dc3a8c5d17" d="M 0 5 
C 1.326016 5 2.597899 4.473168 3.535534 3.535534 
C 4.473168 2.597899 5 1.326016 5 -0 
C 5 -1.326016 4.473168 -2.597899 3.535534 -3.535534 
C 2.597899 -4.473168 1.326016 -5 0 -5 
C -1.326016 -5 -2.597899 -4.473168 -3.535534 -3.535534 
C -4.473168 -2.597899 -5 -1.326016 -5 0 
C -5 1.326016 -4.473168 2.597899 -3.535534 3.535534 
C -2.597899 4.473168 -1.326016 5 0 5 
z
"/>
    </defs>
    <g clip-path="url(#p0e71449d68)">
     <use xlink:href="#C1_0_dc3a8c5d17" x="350.672648" y="21.517401" style="fill: #8dd3c7; stroke: #000000; stroke-width: 0.5"/>
    </g>
    <g clip-path="url(#p0e71449d68)">
     <use xlink:href="#C1_0_dc3a8c5d17" x="328.176183" y="24.531206" style="fill: #ffffb3; stroke: #000000; stroke-width: 0.5"/>
    </g>
    <g clip-path="url(#p0e71449d68)">
     <use xlink:href="#C1_0_dc3a8c5d17" x="329.821518" y="26.351554" style="fill: #bebada; stroke: #000000; stroke-width: 0.5"/>
    </g>
    <g clip-path="url(#p0e71449d68)">
     <use xlink:href="#C1_0_dc3a8c5d17" x="325.963314" y="21.517401" style="fill: #fb8072; stroke: #000000; stroke-width: 0.5"/>
    </g>
    <g clip-path="url(#p0e71449d68)">
     <use xlink:href="#C1_0_dc3a8c5d17" x="333.495617" y="21.564707" style="fill: #80b1d3; stroke: #000000; stroke-width: 0.5"/>
    </g>
    <g clip-path="url(#p0e71449d68)">
     <use xlink:href="#C1_0_dc3a8c5d17" x="352.847886" y="21.517401" style="fill: #fdb462; stroke: #000000; stroke-width: 0.5"/>
    </g>
    <g clip-path="url(#p0e71449d68)">
     <use xlink:href="#C1_0_dc3a8c5d17" x="346.698572" y="23.352634" style="fill: #b3de69; stroke: #000000; stroke-width: 0.5"/>
    </g>
    <g clip-path="url(#p0e71449d68)">
     <use xlink:href="#C1_0_dc3a8c5d17" x="330.931319" y="219.335811" style="fill: #fccde5; stroke: #000000; stroke-width: 0.5"/>
    </g>
    <g clip-path="url(#p0e71449d68)">
     <use xlink:href="#C1_0_dc3a8c5d17" x="343.985684" y="37.670323" style="fill: #d9d9d9; stroke: #000000; stroke-width: 0.5"/>
    </g>
    <g clip-path="url(#p0e71449d68)">
     <use xlink:href="#C1_0_dc3a8c5d17" x="327.595703" y="22.005837" style="fill: #bc80bd; stroke: #000000; stroke-width: 0.5"/>
    </g>
    <g clip-path="url(#p0e71449d68)">
     <use xlink:href="#C1_0_dc3a8c5d17" x="343.509254" y="25.07573" style="fill: #ccebc5; stroke: #000000; stroke-width: 0.5"/>
    </g>
   </g>
   <g id="legend_2">
    <g id="patch_13">
     <path d="M 356.928125 195.136719 
L 410.28125 195.136719 
Q 412.28125 195.136719 412.28125 193.136719 
L 412.28125 17.999219 
Q 412.28125 15.999219 410.28125 15.999219 
L 356.928125 15.999219 
Q 354.928125 15.999219 354.928125 17.999219 
L 354.928125 193.136719 
Q 354.928125 195.136719 356.928125 195.136719 
z
" style="fill: #ffffff; opacity: 0.8; stroke: #cccccc; stroke-linejoin: miter"/>
    </g>
    <g id="text_34">
     <text style="font: 10px 'sans-serif'; text-anchor: start" x="367.38125" y="27.597656" transform="rotate(-0, 367.38125, 27.597656)">Mouse</text>
    </g>
    <g id="PathCollection_36">
     <g>
      <use xlink:href="#m29d52cfc40" x="368.928125" y="39.650781" style="fill: #8dd3c7; stroke: #8dd3c7"/>
     </g>
    </g>
    <g id="text_35">
     <text style="font: 10px 'sans-serif'; text-anchor: start" x="386.928125" y="42.275781" transform="rotate(-0, 386.928125, 42.275781)">M10</text>
    </g>
    <g id="PathCollection_37">
     <g>
      <use xlink:href="#m1af3b09afd" x="368.928125" y="54.328906" style="fill: #ffffb3; stroke: #ffffb3"/>
     </g>
    </g>
    <g id="text_36">
     <text style="font: 10px 'sans-serif'; text-anchor: start" x="386.928125" y="56.953906" transform="rotate(-0, 386.928125, 56.953906)">M5</text>
    </g>
    <g id="PathCollection_38">
     <g>
      <use xlink:href="#m528a2c10ac" x="368.928125" y="69.007031" style="fill: #bebada; stroke: #bebada"/>
     </g>
    </g>
    <g id="text_37">
     <text style="font: 10px 'sans-serif'; text-anchor: start" x="386.928125" y="71.632031" transform="rotate(-0, 386.928125, 71.632031)">M9</text>
    </g>
    <g id="PathCollection_39">
     <g>
      <use xlink:href="#ma8632e3062" x="368.928125" y="83.685156" style="fill: #fb8072; stroke: #fb8072"/>
     </g>
    </g>
    <g id="text_38">
     <text style="font: 10px 'sans-serif'; text-anchor: start" x="386.928125" y="86.310156" transform="rotate(-0, 386.928125, 86.310156)">M13</text>
    </g>
    <g id="PathCollection_40">
     <g>
      <use xlink:href="#md907af00e4" x="368.928125" y="98.363281" style="fill: #80b1d3; stroke: #80b1d3"/>
     </g>
    </g>
    <g id="text_39">
     <text style="font: 10px 'sans-serif'; text-anchor: start" x="386.928125" y="100.988281" transform="rotate(-0, 386.928125, 100.988281)">M6</text>
    </g>
    <g id="PathCollection_41">
     <g>
      <use xlink:href="#m304f51f9a0" x="368.928125" y="113.041406" style="fill: #fdb462; stroke: #fdb462"/>
     </g>
    </g>
    <g id="text_40">
     <text style="font: 10px 'sans-serif'; text-anchor: start" x="386.928125" y="115.666406" transform="rotate(-0, 386.928125, 115.666406)">M7</text>
    </g>
    <g id="PathCollection_42">
     <g>
      <use xlink:href="#mc6968bbb10" x="368.928125" y="127.719531" style="fill: #b3de69; stroke: #b3de69"/>
     </g>
    </g>
    <g id="text_41">
     <text style="font: 10px 'sans-serif'; text-anchor: start" x="386.928125" y="130.344531" transform="rotate(-0, 386.928125, 130.344531)">M4</text>
    </g>
    <g id="PathCollection_43">
     <g>
      <use xlink:href="#m320c687f68" x="368.928125" y="142.397656" style="fill: #fccde5; stroke: #fccde5"/>
     </g>
    </g>
    <g id="text_42">
     <text style="font: 10px 'sans-serif'; text-anchor: start" x="386.928125" y="145.022656" transform="rotate(-0, 386.928125, 145.022656)">M8</text>
    </g>
    <g id="PathCollection_44">
     <g>
      <use xlink:href="#me33f3508ed" x="368.928125" y="157.075781" style="fill: #d9d9d9; stroke: #d9d9d9"/>
     </g>
    </g>
    <g id="text_43">
     <text style="font: 10px 'sans-serif'; text-anchor: start" x="386.928125" y="159.700781" transform="rotate(-0, 386.928125, 159.700781)">M14</text>
    </g>
    <g id="PathCollection_45">
     <g>
      <use xlink:href="#m8e96bda722" x="368.928125" y="171.753906" style="fill: #bc80bd; stroke: #bc80bd"/>
     </g>
    </g>
    <g id="text_44">
     <text style="font: 10px 'sans-serif'; text-anchor: start" x="386.928125" y="174.378906" transform="rotate(-0, 386.928125, 174.378906)">M15</text>
    </g>
    <g id="PathCollection_46">
     <g>
      <use xlink:href="#m4587f99eaa" x="368.928125" y="186.432031" style="fill: #ccebc5; stroke: #ccebc5"/>
     </g>
    </g>
    <g id="text_45">
     <text style="font: 10px 'sans-serif'; text-anchor: start" x="386.928125" y="189.057031" transform="rotate(-0, 386.928125, 189.057031)">M12</text>
    </g>
   </g>
  </g>
 </g>
 <defs>
  <clipPath id="pdde36cc0b2">
   <rect x="56.50625" y="10.999219" width="156.55" height="231.4"/>
  </clipPath>
  <clipPath id="p0e71449d68">
   <rect x="260.73125" y="10.999219" width="156.55" height="231.4"/>
  </clipPath>
 </defs>
</svg>
