<?xml version="1.0" encoding="utf-8" standalone="no"?>
<!DOCTYPE svg PUBLIC "-//W3C//DTD SVG 1.1//EN"
  "http://www.w3.org/Graphics/SVG/1.1/DTD/svg11.dtd">
<svg height="279.091875pt" version="1.1" viewBox="0 0 638.211777 279.091875" width="638.211777pt" xmlns="http://www.w3.org/2000/svg" xmlns:xlink="http://www.w3.org/1999/xlink">
 <metadata>
  <rdf:RDF xmlns:cc="http://creativecommons.org/ns#" xmlns:dc="http://purl.org/dc/elements/1.1/" xmlns:rdf="http://www.w3.org/1999/02/22-rdf-syntax-ns#">
   <cc:Work>
    <dc:type rdf:resource="http://purl.org/dc/dcmitype/StillImage"/>
    <dc:date>2022-08-02T11:28:55.707327</dc:date>
    <dc:format>image/svg+xml</dc:format>
    <dc:creator>
     <cc:Agent>
      <dc:title>Matplotlib v3.4.1, https://matplotlib.org/</dc:title>
     </cc:Agent>
    </dc:creator>
   </cc:Work>
  </rdf:RDF>
 </metadata>
 <defs>
  <style type="text/css">*{stroke-linecap:butt;stroke-linejoin:round;}</style>
 </defs>
 <g id="figure_1">
  <g id="patch_1">
   <path d="M 0 279.091875 
L 638.211777 279.091875 
L 638.211777 0 
L 0 0 
z
" style="fill:none;"/>
  </g>
  <g id="axes_1">
   <g id="patch_2">
    <path d="M 51.91375 101 
L 224.952431 101 
L 224.952431 7.2 
L 51.91375 7.2 
z
" style="fill:#ffffff;"/>
   </g>
   <g id="matplotlib.axis_1">
    <g id="xtick_1">
     <g id="line2d_1">
      <defs>
       <path d="M 0 0 
L 0 3.5 
" id="ma4b47ba4b1" style="stroke:#000000;stroke-width:0.8;"/>
      </defs>
      <g>
       <use style="stroke:#000000;stroke-width:0.8;" x="51.91375" xlink:href="#ma4b47ba4b1" y="101"/>
      </g>
     </g>
     <g id="text_1">
      <text style="font-family:DejaVu Sans;font-size:10px;font-stretch:normal;font-style:normal;font-weight:normal;text-anchor:middle;" transform="rotate(-0, 51.91375, 115.598438)" x="51.91375" y="115.598438">0</text>
     </g>
    </g>
    <g id="xtick_2">
     <g id="line2d_2">
      <g>
       <use style="stroke:#000000;stroke-width:0.8;" x="95.17342" xlink:href="#ma4b47ba4b1" y="101"/>
      </g>
     </g>
     <g id="text_2">
      <text style="font-family:DejaVu Sans;font-size:10px;font-stretch:normal;font-style:normal;font-weight:normal;text-anchor:middle;" transform="rotate(-0, 95.17342, 115.598438)" x="95.17342" y="115.598438">50</text>
     </g>
    </g>
    <g id="xtick_3">
     <g id="line2d_3">
      <g>
       <use style="stroke:#000000;stroke-width:0.8;" x="138.43309" xlink:href="#ma4b47ba4b1" y="101"/>
      </g>
     </g>
     <g id="text_3">
      <text style="font-family:DejaVu Sans;font-size:10px;font-stretch:normal;font-style:normal;font-weight:normal;text-anchor:middle;" transform="rotate(-0, 138.43309, 115.598438)" x="138.43309" y="115.598438">100</text>
     </g>
    </g>
    <g id="xtick_4">
     <g id="line2d_4">
      <g>
       <use style="stroke:#000000;stroke-width:0.8;" x="181.692761" xlink:href="#ma4b47ba4b1" y="101"/>
      </g>
     </g>
     <g id="text_4">
      <text style="font-family:DejaVu Sans;font-size:10px;font-stretch:normal;font-style:normal;font-weight:normal;text-anchor:middle;" transform="rotate(-0, 181.692761, 115.598438)" x="181.692761" y="115.598438">150</text>
     </g>
    </g>
    <g id="xtick_5">
     <g id="line2d_5">
      <g>
       <use style="stroke:#000000;stroke-width:0.8;" x="224.952431" xlink:href="#ma4b47ba4b1" y="101"/>
      </g>
     </g>
     <g id="text_5">
      <text style="font-family:DejaVu Sans;font-size:10px;font-stretch:normal;font-style:normal;font-weight:normal;text-anchor:middle;" transform="rotate(-0, 224.952431, 115.598438)" x="224.952431" y="115.598438">200</text>
     </g>
    </g>
    <g id="text_6">
     <text style="font-family:DejaVu Sans;font-size:12px;font-stretch:normal;font-style:normal;font-weight:normal;text-anchor:middle;" transform="rotate(-0, 138.43309, 130.79625)" x="138.43309" y="130.79625">Time (h)</text>
    </g>
   </g>
   <g id="matplotlib.axis_2">
    <g id="ytick_1">
     <g id="line2d_6">
      <defs>
       <path d="M 0 0 
L -3.5 0 
" id="ma3051bc047" style="stroke:#000000;stroke-width:0.8;"/>
      </defs>
      <g>
       <use style="stroke:#000000;stroke-width:0.8;" x="51.91375" xlink:href="#ma3051bc047" y="79.145538"/>
      </g>
     </g>
     <g id="text_7">
      <!-- $\mathdefault{10^{8}}$ -->
      <g transform="translate(27.31375 82.944757)">
       <text>
        <tspan style="font-family:DejaVu Sans;font-size:10px;font-style:book;font-weight:book;" x="0 6.362305" y="-0.9765625">10</tspan>
        <tspan style="font-family:DejaVu Sans;font-size:7px;font-style:book;font-weight:book;" x="12.820312" y="-4.8046875">8</tspan>
       </text>
      </g>
     </g>
    </g>
    <g id="ytick_2">
     <g id="line2d_7">
      <g>
       <use style="stroke:#000000;stroke-width:0.8;" x="51.91375" xlink:href="#ma3051bc047" y="47.878871"/>
      </g>
     </g>
     <g id="text_8">
      <!-- $\mathdefault{10^{9}}$ -->
      <g transform="translate(27.31375 51.67809)">
       <text>
        <tspan style="font-family:DejaVu Sans;font-size:10px;font-style:book;font-weight:book;" x="0 6.362305" y="-0.9765625">10</tspan>
        <tspan style="font-family:DejaVu Sans;font-size:7px;font-style:book;font-weight:book;" x="12.820312" y="-4.8046875">9</tspan>
       </text>
      </g>
     </g>
    </g>
    <g id="ytick_3">
     <g id="line2d_8">
      <g>
       <use style="stroke:#000000;stroke-width:0.8;" x="51.91375" xlink:href="#ma3051bc047" y="16.612205"/>
      </g>
     </g>
     <g id="text_9">
      <!-- $\mathdefault{10^{10}}$ -->
      <g transform="translate(22.81375 20.411423)">
       <text>
        <tspan style="font-family:DejaVu Sans;font-size:10px;font-style:book;font-weight:book;" x="0 6.362305" y="-0.9765625">10</tspan>
        <tspan style="font-family:DejaVu Sans;font-size:7px;font-style:book;font-weight:book;" x="12.820312 17.273926" y="-4.8046875">10</tspan>
       </text>
      </g>
     </g>
    </g>
    <g id="text_10">
     <text style="font-family:DejaVu Sans;font-size:12px;font-stretch:normal;font-style:normal;font-weight:normal;text-anchor:middle;" transform="rotate(-90, 16.318125, 54.1)" x="16.318125" y="54.1">Load (cfu/g)</text>
    </g>
   </g>
   <g id="line2d_9">
    <path clip-path="url(#pf8f5c68cf1)" d="M 51.91375 108.750115 
L 56.239717 112.065707 
L 60.565684 114.849946 
L 64.891651 117.097551 
L 69.217618 118.843629 
L 73.543585 120.153871 
L 77.869552 121.10872 
L 82.195519 121.788553 
L 86.521486 122.264089 
L 90.847453 122.592436 
L 95.17342 122.817064 
L 99.499387 122.969744 
L 103.825354 123.073058 
L 108.151321 123.142754 
L 112.477288 123.189674 
L 116.803255 123.221216 
L 121.129222 123.2424 
L 125.455189 123.256619 
L 129.781156 123.266159 
L 134.107123 123.272557 
L 138.43309 123.276848 
L 142.759057 123.279725 
L 147.085024 123.281653 
L 151.410991 123.282946 
L 155.736958 123.283813 
L 160.062925 123.284394 
L 164.388892 123.284784 
L 168.714859 123.285045 
L 173.040826 123.28522 
L 177.366793 123.285337 
L 181.692761 123.285416 
L 186.018728 123.285469 
L 190.344695 123.285504 
L 194.670662 123.285528 
L 198.996629 123.285544 
L 203.322596 123.285554 
L 207.648563 123.285561 
L 211.97453 123.285566 
L 216.300497 123.285569 
L 220.626464 123.285571 
L 224.952431 123.285573 
" style="fill:none;stroke:#e31a1c;stroke-linecap:square;stroke-width:2;"/>
   </g>
   <g id="line2d_10">
    <path clip-path="url(#pf8f5c68cf1)" d="M 51.91375 5.729005 
L 56.239717 10.738108 
L 60.565684 15.516415 
L 64.891651 20.139065 
L 69.217618 24.654212 
L 73.543585 29.093889 
L 77.869552 33.479977 
L 82.195519 37.827703 
L 86.521486 42.147806 
L 90.847453 46.447936 
L 95.17342 50.73358 
L 99.499387 55.008694 
L 103.825354 59.276143 
L 108.151321 63.538004 
L 112.477288 67.795788 
L 116.803255 72.050597 
L 121.129222 76.303232 
L 125.455189 80.554279 
L 129.781156 84.804165 
L 134.107123 89.053204 
L 138.43309 93.301622 
L 142.759057 97.549587 
L 147.085024 101.797221 
L 151.410991 106.044612 
L 155.736958 110.291826 
L 160.062925 114.53891 
L 164.388892 118.785899 
L 168.714859 123.032819 
L 173.040826 127.279689 
L 177.366793 131.526521 
L 181.692761 135.773326 
L 186.018728 140.020111 
L 190.344695 144.266882 
L 194.670662 148.513642 
L 198.996629 152.760395 
L 203.322596 157.007142 
L 207.648563 161.253884 
L 211.97453 165.500624 
L 216.300497 169.747361 
L 220.626464 173.994097 
L 224.952431 178.240832 
" style="fill:none;stroke:#33a02c;stroke-linecap:square;stroke-width:2;"/>
   </g>
   <g id="line2d_11">
    <path clip-path="url(#pf8f5c68cf1)" d="M 51.91375 108.750115 
L 56.239717 108.750115 
L 60.565684 108.750115 
L 64.891651 108.750115 
L 69.217618 108.750115 
L 73.543585 108.750115 
L 77.869552 108.750115 
L 82.195519 108.750115 
L 86.521486 108.750115 
L 90.847453 108.750115 
L 95.17342 108.750115 
L 99.499387 108.750115 
L 103.825354 108.750115 
L 108.151321 108.750115 
L 112.477288 108.750115 
L 116.803255 108.750115 
L 121.129222 108.750115 
L 125.455189 108.750115 
L 129.781156 108.750115 
L 134.107123 108.750115 
L 138.43309 108.750115 
L 142.759057 108.750115 
L 147.085024 108.750115 
L 151.410991 108.750115 
L 155.736958 108.750115 
L 160.062925 108.750115 
L 164.388892 108.750115 
L 168.714859 108.750115 
L 173.040826 108.750115 
L 177.366793 108.750115 
L 181.692761 108.750115 
L 186.018728 108.750115 
L 190.344695 108.750115 
L 194.670662 108.750115 
L 198.996629 108.750115 
L 203.322596 108.750115 
L 207.648563 108.750115 
L 211.97453 108.750115 
L 216.300497 108.750115 
L 220.626464 108.750115 
L 224.952431 108.750115 
" style="fill:none;stroke:#000000;stroke-dasharray:5.55,2.4;stroke-dashoffset:0;stroke-width:1.5;"/>
   </g>
   <g id="line2d_12">
    <path clip-path="url(#pf8f5c68cf1)" d="M 51.91375 108.750115 
L 56.239717 112.065707 
L 60.565684 114.849945 
L 64.891651 117.097551 
L 69.217618 118.843628 
L 73.543585 120.153871 
L 77.869552 121.10872 
L 82.195519 121.788553 
L 86.521486 122.264089 
L 90.847453 122.592436 
L 95.17342 122.817064 
L 99.499387 122.969744 
L 103.825354 123.073058 
L 108.151321 123.142754 
L 112.477288 123.189674 
L 116.803255 123.221216 
L 121.129222 123.2424 
L 125.455189 123.256619 
L 129.781156 123.266159 
L 134.107123 123.272557 
L 138.43309 123.276848 
L 142.759057 123.279725 
L 147.085024 123.281653 
L 151.410991 123.282946 
L 155.736958 123.283813 
L 160.062925 123.284394 
L 164.388892 123.284784 
L 168.714859 123.285045 
L 173.040826 123.28522 
L 177.366793 123.285337 
L 181.692761 123.285416 
L 186.018728 123.285469 
L 190.344695 123.285504 
L 194.670662 123.285528 
L 198.996629 123.285544 
L 203.322596 123.285554 
L 207.648563 123.285561 
L 211.97453 123.285566 
L 216.300497 123.285569 
L 220.626464 123.285571 
L 224.952431 123.285573 
" style="fill:none;stroke:#ffa500;stroke-dasharray:3.7,1.6;stroke-dashoffset:0;"/>
   </g>
   <g id="line2d_13">
    <path clip-path="url(#pf8f5c68cf1)" d="M 51.91375 108.750115 
L 56.239717 106.995367 
L 60.565684 102.585675 
L 64.891651 96.646725 
L 69.217618 89.802354 
L 73.543585 82.484354 
L 77.869552 75.099767 
L 82.195519 68.113543 
L 86.521486 62.038351 
L 90.847453 57.291918 
L 95.17342 53.996198 
L 99.499387 51.937744 
L 103.825354 50.745102 
L 108.151321 50.080776 
L 112.477288 49.713945 
L 116.803255 49.508524 
L 121.129222 49.390061 
L 125.455189 49.319096 
L 129.781156 49.274824 
L 134.107123 49.246128 
L 138.43309 49.226912 
L 142.759057 49.213708 
L 147.085024 49.204457 
L 151.410991 49.197886 
L 155.736958 49.193174 
L 160.062925 49.18977 
L 164.388892 49.187304 
L 168.714859 49.18551 
L 173.040826 49.184203 
L 177.366793 49.18325 
L 181.692761 49.182553 
L 186.018728 49.182044 
L 190.344695 49.181672 
L 194.670662 49.1814 
L 198.996629 49.181201 
L 203.322596 49.181056 
L 207.648563 49.18095 
L 211.97453 49.180872 
L 216.300497 49.180815 
L 220.626464 49.180774 
L 224.952431 49.180743 
" style="fill:none;stroke:#fa8072;stroke-dasharray:6.4,1.6,1,1.6;stroke-dashoffset:0;"/>
   </g>
   <g id="patch_3">
    <path d="M 51.91375 101 
L 51.91375 7.2 
" style="fill:none;stroke:#000000;stroke-linecap:square;stroke-linejoin:miter;stroke-width:0.8;"/>
   </g>
   <g id="patch_4">
    <path d="M 224.952431 101 
L 224.952431 7.2 
" style="fill:none;stroke:#000000;stroke-linecap:square;stroke-linejoin:miter;stroke-width:0.8;"/>
   </g>
   <g id="patch_5">
    <path d="M 51.91375 101 
L 224.952431 101 
" style="fill:none;stroke:#000000;stroke-linecap:square;stroke-linejoin:miter;stroke-width:0.8;"/>
   </g>
   <g id="patch_6">
    <path d="M 51.91375 7.2 
L 224.952431 7.2 
" style="fill:none;stroke:#000000;stroke-linecap:square;stroke-linejoin:miter;stroke-width:0.8;"/>
   </g>
   <g id="legend_1">
    <g id="patch_7">
     <path d="M 100.086806 45.1125 
L 217.952431 45.1125 
Q 219.952431 45.1125 219.952431 43.1125 
L 219.952431 14.2 
Q 219.952431 12.2 217.952431 12.2 
L 100.086806 12.2 
Q 98.086806 12.2 98.086806 14.2 
L 98.086806 43.1125 
Q 98.086806 45.1125 100.086806 45.1125 
z
" style="fill:#ffffff;opacity:0.8;stroke:#cccccc;stroke-linejoin:miter;"/>
    </g>
    <g id="line2d_14">
     <path d="M 102.086806 20.298438 
L 122.086806 20.298438 
" style="fill:none;stroke:#ffa500;stroke-dasharray:3.7,1.6;stroke-dashoffset:0;"/>
    </g>
    <g id="line2d_15"/>
    <g id="text_11">
     <text style="font-family:DejaVu Sans;font-size:10px;font-stretch:normal;font-style:normal;font-weight:normal;text-anchor:start;" transform="rotate(-0, 130.086806, 23.798438)" x="130.086806" y="23.798438">abx_only</text>
    </g>
    <g id="line2d_16">
     <path d="M 102.086806 35.254688 
L 122.086806 35.254688 
" style="fill:none;stroke:#fa8072;stroke-dasharray:6.4,1.6,1,1.6;stroke-dashoffset:0;"/>
    </g>
    <g id="line2d_17"/>
    <g id="text_12">
     <text style="font-family:DejaVu Sans;font-size:10px;font-stretch:normal;font-style:normal;font-weight:normal;text-anchor:start;" transform="rotate(-0, 130.086806, 38.754688)" x="130.086806" y="38.754688">competition_only</text>
    </g>
   </g>
  </g>
  <g id="axes_2">
   <g id="patch_8">
    <path d="M 250.171548 101 
L 423.210229 101 
L 423.210229 7.2 
L 250.171548 7.2 
z
" style="fill:#ffffff;"/>
   </g>
   <g id="matplotlib.axis_3">
    <g id="xtick_6">
     <g id="line2d_18">
      <g>
       <use style="stroke:#000000;stroke-width:0.8;" x="250.171548" xlink:href="#ma4b47ba4b1" y="101"/>
      </g>
     </g>
     <g id="text_13">
      <text style="font-family:DejaVu Sans;font-size:10px;font-stretch:normal;font-style:normal;font-weight:normal;text-anchor:middle;" transform="rotate(-0, 250.171548, 115.598438)" x="250.171548" y="115.598438">0</text>
     </g>
    </g>
    <g id="xtick_7">
     <g id="line2d_19">
      <g>
       <use style="stroke:#000000;stroke-width:0.8;" x="293.431219" xlink:href="#ma4b47ba4b1" y="101"/>
      </g>
     </g>
     <g id="text_14">
      <text style="font-family:DejaVu Sans;font-size:10px;font-stretch:normal;font-style:normal;font-weight:normal;text-anchor:middle;" transform="rotate(-0, 293.431219, 115.598438)" x="293.431219" y="115.598438">50</text>
     </g>
    </g>
    <g id="xtick_8">
     <g id="line2d_20">
      <g>
       <use style="stroke:#000000;stroke-width:0.8;" x="336.690889" xlink:href="#ma4b47ba4b1" y="101"/>
      </g>
     </g>
     <g id="text_15">
      <text style="font-family:DejaVu Sans;font-size:10px;font-stretch:normal;font-style:normal;font-weight:normal;text-anchor:middle;" transform="rotate(-0, 336.690889, 115.598438)" x="336.690889" y="115.598438">100</text>
     </g>
    </g>
    <g id="xtick_9">
     <g id="line2d_21">
      <g>
       <use style="stroke:#000000;stroke-width:0.8;" x="379.950559" xlink:href="#ma4b47ba4b1" y="101"/>
      </g>
     </g>
     <g id="text_16">
      <text style="font-family:DejaVu Sans;font-size:10px;font-stretch:normal;font-style:normal;font-weight:normal;text-anchor:middle;" transform="rotate(-0, 379.950559, 115.598438)" x="379.950559" y="115.598438">150</text>
     </g>
    </g>
    <g id="xtick_10">
     <g id="line2d_22">
      <g>
       <use style="stroke:#000000;stroke-width:0.8;" x="423.210229" xlink:href="#ma4b47ba4b1" y="101"/>
      </g>
     </g>
     <g id="text_17">
      <text style="font-family:DejaVu Sans;font-size:10px;font-stretch:normal;font-style:normal;font-weight:normal;text-anchor:middle;" transform="rotate(-0, 423.210229, 115.598438)" x="423.210229" y="115.598438">200</text>
     </g>
    </g>
    <g id="text_18">
     <text style="font-family:DejaVu Sans;font-size:12px;font-stretch:normal;font-style:normal;font-weight:normal;text-anchor:middle;" transform="rotate(-0, 336.690889, 130.79625)" x="336.690889" y="130.79625">Time (h)</text>
    </g>
   </g>
   <g id="matplotlib.axis_4">
    <g id="ytick_4">
     <g id="line2d_23">
      <g>
       <use style="stroke:#000000;stroke-width:0.8;" x="250.171548" xlink:href="#ma3051bc047" y="79.145538"/>
      </g>
     </g>
    </g>
    <g id="ytick_5">
     <g id="line2d_24">
      <g>
       <use style="stroke:#000000;stroke-width:0.8;" x="250.171548" xlink:href="#ma3051bc047" y="47.878871"/>
      </g>
     </g>
    </g>
    <g id="ytick_6">
     <g id="line2d_25">
      <g>
       <use style="stroke:#000000;stroke-width:0.8;" x="250.171548" xlink:href="#ma3051bc047" y="16.612205"/>
      </g>
     </g>
    </g>
   </g>
   <g id="line2d_26">
    <path clip-path="url(#pf51987af10)" d="M 250.171548 108.750115 
L 254.497515 111.030726 
L 258.823482 112.417839 
L 263.149449 113.207371 
L 267.475416 113.605889 
L 271.801383 113.75542 
L 276.12735 113.751765 
L 280.453317 113.658399 
L 284.779284 113.516665 
L 289.105251 113.353002 
L 293.431219 113.183917 
L 297.757186 113.01936 
L 302.083153 112.864993 
L 306.40912 112.723701 
L 310.735087 112.596608 
L 315.061054 112.483744 
L 319.387021 112.384487 
L 323.712988 112.297855 
L 328.038955 112.222697 
L 332.364922 112.157808 
L 336.690889 112.102007 
L 341.016856 112.054177 
L 345.342823 112.013292 
L 349.66879 111.978423 
L 353.994757 111.948741 
L 358.320724 111.923517 
L 362.646691 111.90211 
L 366.972658 111.883965 
L 371.298625 111.868601 
L 375.624592 111.855602 
L 379.950559 111.844614 
L 384.276526 111.83533 
L 388.602493 111.827492 
L 392.92846 111.820877 
L 397.254427 111.815296 
L 401.580394 111.810591 
L 405.906361 111.806624 
L 410.232328 111.803281 
L 414.558295 111.800465 
L 418.884262 111.798092 
L 423.210229 111.796094 
" style="fill:none;stroke:#e31a1c;stroke-linecap:square;stroke-width:2;"/>
   </g>
   <g id="line2d_27">
    <path clip-path="url(#pf51987af10)" d="M 250.171548 5.729005 
L 254.497515 10.738393 
L 258.823482 15.517585 
L 263.149449 20.141665 
L 267.475416 24.658698 
L 271.801383 29.10064 
L 276.12735 33.489305 
L 280.453317 37.83987 
L 284.779284 42.163033 
L 289.105251 46.466413 
L 293.431219 50.755471 
L 297.757186 55.034141 
L 302.083153 59.305267 
L 306.40912 63.570911 
L 310.735087 67.832571 
L 315.061054 72.091334 
L 319.387021 76.347991 
L 323.712988 80.603119 
L 328.038955 84.857136 
L 332.364922 89.110348 
L 336.690889 93.362977 
L 341.016856 97.615184 
L 345.342823 101.867085 
L 349.66879 106.118767 
L 353.994757 110.37029 
L 358.320724 114.6217 
L 362.646691 118.873029 
L 366.972658 123.124301 
L 371.298625 127.375531 
L 375.624592 131.626733 
L 379.950559 135.877914 
L 384.276526 140.129081 
L 388.602493 144.380239 
L 392.92846 148.631391 
L 397.254427 152.882538 
L 401.580394 157.133682 
L 405.906361 161.384825 
L 410.232328 165.635967 
L 414.558295 169.887108 
L 418.884262 174.138249 
L 423.210229 178.389391 
" style="fill:none;stroke:#33a02c;stroke-linecap:square;stroke-width:2;"/>
   </g>
   <g id="line2d_28">
    <path clip-path="url(#pf51987af10)" d="M 250.171548 108.750115 
L 254.497515 108.750115 
L 258.823482 108.750115 
L 263.149449 108.750115 
L 267.475416 108.750115 
L 271.801383 108.750115 
L 276.12735 108.750115 
L 280.453317 108.750115 
L 284.779284 108.750115 
L 289.105251 108.750115 
L 293.431219 108.750115 
L 297.757186 108.750115 
L 302.083153 108.750115 
L 306.40912 108.750115 
L 310.735087 108.750115 
L 315.061054 108.750115 
L 319.387021 108.750115 
L 323.712988 108.750115 
L 328.038955 108.750115 
L 332.364922 108.750115 
L 336.690889 108.750115 
L 341.016856 108.750115 
L 345.342823 108.750115 
L 349.66879 108.750115 
L 353.994757 108.750115 
L 358.320724 108.750115 
L 362.646691 108.750115 
L 366.972658 108.750115 
L 371.298625 108.750115 
L 375.624592 108.750115 
L 379.950559 108.750115 
L 384.276526 108.750115 
L 388.602493 108.750115 
L 392.92846 108.750115 
L 397.254427 108.750115 
L 401.580394 108.750115 
L 405.906361 108.750115 
L 410.232328 108.750115 
L 414.558295 108.750115 
L 418.884262 108.750115 
L 423.210229 108.750115 
" style="fill:none;stroke:#000000;stroke-dasharray:5.55,2.4;stroke-dashoffset:0;stroke-width:1.5;"/>
   </g>
   <g id="line2d_29">
    <path clip-path="url(#pf51987af10)" d="M 250.171548 108.750115 
L 254.497515 111.403638 
L 258.823482 113.647026 
L 263.149449 115.488528 
L 267.475416 116.958032 
L 271.801383 118.101085 
L 276.12735 118.970877 
L 280.453317 119.620872 
L 284.779284 120.099696 
L 289.105251 120.448548 
L 293.431219 120.700603 
L 297.757186 120.881602 
L 302.083153 121.010992 
L 306.40912 121.103188 
L 310.735087 121.168728 
L 315.061054 121.215241 
L 319.387021 121.248211 
L 323.712988 121.271562 
L 328.038955 121.28809 
L 332.364922 121.299784 
L 336.690889 121.308055 
L 341.016856 121.313903 
L 345.342823 121.318038 
L 349.66879 121.320962 
L 353.994757 121.323029 
L 358.320724 121.324489 
L 362.646691 121.325522 
L 366.972658 121.326252 
L 371.298625 121.326768 
L 375.624592 121.327132 
L 379.950559 121.32739 
L 384.276526 121.327572 
L 388.602493 121.327701 
L 392.92846 121.327792 
L 397.254427 121.327856 
L 401.580394 121.327902 
L 405.906361 121.327934 
L 410.232328 121.327956 
L 414.558295 121.327972 
L 418.884262 121.327984 
L 423.210229 121.327991 
" style="fill:none;stroke:#ffa500;stroke-dasharray:3.7,1.6;stroke-dashoffset:0;"/>
   </g>
   <g id="line2d_30">
    <path clip-path="url(#pf51987af10)" d="M 250.171548 108.750115 
L 254.497515 106.995284 
L 258.823482 102.585281 
L 263.149449 96.645746 
L 267.475416 89.800591 
L 271.801383 82.48174 
L 276.12735 75.096399 
L 280.453317 68.10971 
L 284.779284 62.0345 
L 289.105251 57.288506 
L 293.431219 53.993486 
L 297.757186 51.935734 
L 302.083153 50.743654 
L 306.40912 50.079728 
L 310.735087 49.713171 
L 315.061054 49.507939 
L 319.387021 49.389612 
L 323.712988 49.318747 
L 328.038955 49.274553 
L 332.364922 49.245917 
L 336.690889 49.226745 
L 341.016856 49.213576 
L 345.342823 49.204354 
L 349.66879 49.197805 
L 353.994757 49.19311 
L 358.320724 49.189723 
L 362.646691 49.187266 
L 366.972658 49.185482 
L 371.298625 49.184181 
L 375.624592 49.183233 
L 379.950559 49.18254 
L 384.276526 49.182034 
L 388.602493 49.181665 
L 392.92846 49.181394 
L 397.254427 49.181197 
L 401.580394 49.181053 
L 405.906361 49.180947 
L 410.232328 49.18087 
L 414.558295 49.180814 
L 418.884262 49.180773 
L 423.210229 49.180743 
" style="fill:none;stroke:#fa8072;stroke-dasharray:6.4,1.6,1,1.6;stroke-dashoffset:0;"/>
   </g>
   <g id="patch_9">
    <path d="M 250.171548 101 
L 250.171548 7.2 
" style="fill:none;stroke:#000000;stroke-linecap:square;stroke-linejoin:miter;stroke-width:0.8;"/>
   </g>
   <g id="patch_10">
    <path d="M 423.210229 101 
L 423.210229 7.2 
" style="fill:none;stroke:#000000;stroke-linecap:square;stroke-linejoin:miter;stroke-width:0.8;"/>
   </g>
   <g id="patch_11">
    <path d="M 250.171548 101 
L 423.210229 101 
" style="fill:none;stroke:#000000;stroke-linecap:square;stroke-linejoin:miter;stroke-width:0.8;"/>
   </g>
   <g id="patch_12">
    <path d="M 250.171548 7.2 
L 423.210229 7.2 
" style="fill:none;stroke:#000000;stroke-linecap:square;stroke-linejoin:miter;stroke-width:0.8;"/>
   </g>
   <g id="legend_2">
    <g id="patch_13">
     <path d="M 298.344604 45.1125 
L 416.210229 45.1125 
Q 418.210229 45.1125 418.210229 43.1125 
L 418.210229 14.2 
Q 418.210229 12.2 416.210229 12.2 
L 298.344604 12.2 
Q 296.344604 12.2 296.344604 14.2 
L 296.344604 43.1125 
Q 296.344604 45.1125 298.344604 45.1125 
z
" style="fill:#ffffff;opacity:0.8;stroke:#cccccc;stroke-linejoin:miter;"/>
    </g>
    <g id="line2d_31">
     <path d="M 300.344604 20.298438 
L 320.344604 20.298438 
" style="fill:none;stroke:#ffa500;stroke-dasharray:3.7,1.6;stroke-dashoffset:0;"/>
    </g>
    <g id="line2d_32"/>
    <g id="text_19">
     <text style="font-family:DejaVu Sans;font-size:10px;font-stretch:normal;font-style:normal;font-weight:normal;text-anchor:start;" transform="rotate(-0, 328.344604, 23.798438)" x="328.344604" y="23.798438">abx_only</text>
    </g>
    <g id="line2d_33">
     <path d="M 300.344604 35.254688 
L 320.344604 35.254688 
" style="fill:none;stroke:#fa8072;stroke-dasharray:6.4,1.6,1,1.6;stroke-dashoffset:0;"/>
    </g>
    <g id="line2d_34"/>
    <g id="text_20">
     <text style="font-family:DejaVu Sans;font-size:10px;font-stretch:normal;font-style:normal;font-weight:normal;text-anchor:start;" transform="rotate(-0, 328.344604, 38.754688)" x="328.344604" y="38.754688">competition_only</text>
    </g>
   </g>
  </g>
  <g id="axes_3">
   <g id="patch_14">
    <path d="M 448.429347 101 
L 621.468027 101 
L 621.468027 7.2 
L 448.429347 7.2 
z
" style="fill:#ffffff;"/>
   </g>
   <g id="matplotlib.axis_5">
    <g id="xtick_11">
     <g id="line2d_35">
      <g>
       <use style="stroke:#000000;stroke-width:0.8;" x="448.429347" xlink:href="#ma4b47ba4b1" y="101"/>
      </g>
     </g>
     <g id="text_21">
      <text style="font-family:DejaVu Sans;font-size:10px;font-stretch:normal;font-style:normal;font-weight:normal;text-anchor:middle;" transform="rotate(-0, 448.429347, 115.598438)" x="448.429347" y="115.598438">0</text>
     </g>
    </g>
    <g id="xtick_12">
     <g id="line2d_36">
      <g>
       <use style="stroke:#000000;stroke-width:0.8;" x="491.689017" xlink:href="#ma4b47ba4b1" y="101"/>
      </g>
     </g>
     <g id="text_22">
      <text style="font-family:DejaVu Sans;font-size:10px;font-stretch:normal;font-style:normal;font-weight:normal;text-anchor:middle;" transform="rotate(-0, 491.689017, 115.598438)" x="491.689017" y="115.598438">50</text>
     </g>
    </g>
    <g id="xtick_13">
     <g id="line2d_37">
      <g>
       <use style="stroke:#000000;stroke-width:0.8;" x="534.948687" xlink:href="#ma4b47ba4b1" y="101"/>
      </g>
     </g>
     <g id="text_23">
      <text style="font-family:DejaVu Sans;font-size:10px;font-stretch:normal;font-style:normal;font-weight:normal;text-anchor:middle;" transform="rotate(-0, 534.948687, 115.598438)" x="534.948687" y="115.598438">100</text>
     </g>
    </g>
    <g id="xtick_14">
     <g id="line2d_38">
      <g>
       <use style="stroke:#000000;stroke-width:0.8;" x="578.208357" xlink:href="#ma4b47ba4b1" y="101"/>
      </g>
     </g>
     <g id="text_24">
      <text style="font-family:DejaVu Sans;font-size:10px;font-stretch:normal;font-style:normal;font-weight:normal;text-anchor:middle;" transform="rotate(-0, 578.208357, 115.598438)" x="578.208357" y="115.598438">150</text>
     </g>
    </g>
    <g id="xtick_15">
     <g id="line2d_39">
      <g>
       <use style="stroke:#000000;stroke-width:0.8;" x="621.468027" xlink:href="#ma4b47ba4b1" y="101"/>
      </g>
     </g>
     <g id="text_25">
      <text style="font-family:DejaVu Sans;font-size:10px;font-stretch:normal;font-style:normal;font-weight:normal;text-anchor:middle;" transform="rotate(-0, 621.468027, 115.598438)" x="621.468027" y="115.598438">200</text>
     </g>
    </g>
    <g id="text_26">
     <text style="font-family:DejaVu Sans;font-size:12px;font-stretch:normal;font-style:normal;font-weight:normal;text-anchor:middle;" transform="rotate(-0, 534.948687, 130.79625)" x="534.948687" y="130.79625">Time (h)</text>
    </g>
   </g>
   <g id="matplotlib.axis_6">
    <g id="ytick_7">
     <g id="line2d_40">
      <g>
       <use style="stroke:#000000;stroke-width:0.8;" x="448.429347" xlink:href="#ma3051bc047" y="79.145538"/>
      </g>
     </g>
    </g>
    <g id="ytick_8">
     <g id="line2d_41">
      <g>
       <use style="stroke:#000000;stroke-width:0.8;" x="448.429347" xlink:href="#ma3051bc047" y="47.878871"/>
      </g>
     </g>
    </g>
    <g id="ytick_9">
     <g id="line2d_42">
      <g>
       <use style="stroke:#000000;stroke-width:0.8;" x="448.429347" xlink:href="#ma3051bc047" y="16.612205"/>
      </g>
     </g>
    </g>
   </g>
   <g id="line2d_43">
    <path clip-path="url(#p1d63080ae8)" d="M 448.429347 108.750115 
L 452.755314 108.435188 
L 457.081281 106.198811 
L 461.407248 102.879186 
L 465.733215 98.937979 
L 470.059182 94.638529 
L 474.385149 90.14579 
L 478.711116 85.578985 
L 483.037083 81.039356 
L 487.36305 76.624614 
L 491.689017 72.434768 
L 496.014984 68.570372 
L 500.340951 65.12337 
L 504.666918 62.162689 
L 508.992885 59.72026 
L 513.318852 57.784796 
L 517.644819 56.307223 
L 521.970786 55.215024 
L 526.296753 54.428577 
L 530.62272 53.873619 
L 534.948687 53.487814 
L 539.274654 53.222445 
L 543.600621 53.041259 
L 547.926588 52.918166 
L 552.252555 52.834814 
L 556.578522 52.77849 
L 560.904489 52.740477 
L 565.230456 52.714839 
L 569.556423 52.697552 
L 573.88239 52.685897 
L 578.208357 52.678036 
L 582.534324 52.672734 
L 586.860291 52.669155 
L 591.186258 52.666739 
L 595.512225 52.665107 
L 599.838192 52.664003 
L 604.164159 52.663257 
L 608.490126 52.662752 
L 612.816093 52.66241 
L 617.14206 52.662178 
L 621.468027 52.662021 
" style="fill:none;stroke:#e31a1c;stroke-linecap:square;stroke-width:2;"/>
   </g>
   <g id="line2d_44">
    <path clip-path="url(#p1d63080ae8)" d="M 448.429347 5.729005 
L 452.755314 10.739171 
L 457.081281 15.521214 
L 461.407248 20.151125 
L 465.733215 24.678267 
L 470.059182 29.136494 
L 474.385149 33.55035 
L 478.711116 37.938828 
L 483.037083 42.317795 
L 487.36305 46.701549 
L 491.689017 51.103641 
L 496.014984 55.536904 
L 500.340951 60.012664 
L 504.666918 64.539335 
L 508.992885 69.121017 
L 513.318852 73.756913 
L 517.644819 78.441979 
L 521.970786 83.168529 
L 526.296753 87.928043 
L 530.62272 92.712535 
L 534.948687 97.515292 
L 539.274654 102.331057 
L 543.600621 107.155918 
L 547.926588 111.987055 
L 552.252555 116.822488 
L 556.578522 121.660842 
L 560.904489 126.501174 
L 565.230456 131.342844 
L 569.556423 136.185417 
L 573.88239 141.028599 
L 578.208357 145.872191 
L 582.534324 150.716059 
L 586.860291 155.560113 
L 591.186258 160.404293 
L 595.512225 165.248558 
L 599.838192 170.09288 
L 604.164159 174.937241 
L 608.490126 179.781628 
L 612.816093 184.626032 
L 617.14206 189.470448 
L 621.468027 194.314873 
" style="fill:none;stroke:#33a02c;stroke-linecap:square;stroke-width:2;"/>
   </g>
   <g id="line2d_45">
    <path clip-path="url(#p1d63080ae8)" d="M 448.429347 108.750115 
L 452.755314 108.750115 
L 457.081281 108.750115 
L 461.407248 108.750115 
L 465.733215 108.750115 
L 470.059182 108.750115 
L 474.385149 108.750115 
L 478.711116 108.750115 
L 483.037083 108.750115 
L 487.36305 108.750115 
L 491.689017 108.750115 
L 496.014984 108.750115 
L 500.340951 108.750115 
L 504.666918 108.750115 
L 508.992885 108.750115 
L 513.318852 108.750115 
L 517.644819 108.750115 
L 521.970786 108.750115 
L 526.296753 108.750115 
L 530.62272 108.750115 
L 534.948687 108.750115 
L 539.274654 108.750115 
L 543.600621 108.750115 
L 547.926588 108.750115 
L 552.252555 108.750115 
L 556.578522 108.750115 
L 560.904489 108.750115 
L 565.230456 108.750115 
L 569.556423 108.750115 
L 573.88239 108.750115 
L 578.208357 108.750115 
L 582.534324 108.750115 
L 586.860291 108.750115 
L 591.186258 108.750115 
L 595.512225 108.750115 
L 599.838192 108.750115 
L 604.164159 108.750115 
L 608.490126 108.750115 
L 612.816093 108.750115 
L 617.14206 108.750115 
L 621.468027 108.750115 
" style="fill:none;stroke:#000000;stroke-dasharray:5.55,2.4;stroke-dashoffset:0;stroke-width:1.5;"/>
   </g>
   <g id="line2d_46">
    <path clip-path="url(#p1d63080ae8)" d="M 448.429347 108.750115 
L 452.755314 109.745914 
L 457.081281 110.600033 
L 461.407248 111.325919 
L 465.733215 111.937703 
L 470.059182 112.449514 
L 474.385149 112.874921 
L 478.711116 113.226539 
L 483.037083 113.515785 
L 487.36305 113.752766 
L 491.689017 113.946274 
L 496.014984 114.103843 
L 500.340951 114.231852 
L 504.666918 114.335648 
L 508.992885 114.419682 
L 513.318852 114.48763 
L 517.644819 114.542514 
L 521.970786 114.586809 
L 526.296753 114.622534 
L 530.62272 114.651331 
L 534.948687 114.674533 
L 539.274654 114.693221 
L 543.600621 114.708269 
L 547.926588 114.720382 
L 552.252555 114.730132 
L 556.578522 114.737978 
L 560.904489 114.744291 
L 565.230456 114.749371 
L 569.556423 114.753457 
L 573.88239 114.756744 
L 578.208357 114.759389 
L 582.534324 114.761516 
L 586.860291 114.763227 
L 591.186258 114.764603 
L 595.512225 114.76571 
L 599.838192 114.7666 
L 604.164159 114.767316 
L 608.490126 114.767892 
L 612.816093 114.768355 
L 617.14206 114.768727 
L 621.468027 114.769027 
" style="fill:none;stroke:#ffa500;stroke-dasharray:3.7,1.6;stroke-dashoffset:0;"/>
   </g>
   <g id="line2d_47">
    <path clip-path="url(#p1d63080ae8)" d="M 448.429347 108.750115 
L 452.755314 106.995059 
L 457.081281 102.584114 
L 461.407248 96.64255 
L 465.733215 89.794176 
L 470.059182 82.471037 
L 474.385149 75.080772 
L 478.711116 68.089387 
L 483.037083 62.010891 
L 487.36305 57.263864 
L 491.689017 53.969811 
L 496.014984 51.91394 
L 500.340951 50.723733 
L 504.666918 50.061359 
L 508.992885 49.696115 
L 513.318852 49.492137 
L 517.644819 49.375128 
L 521.970786 49.305691 
L 526.296753 49.263004 
L 530.62272 49.235902 
L 534.948687 49.218221 
L 539.274654 49.206442 
L 543.600621 49.198473 
L 547.926588 49.193021 
L 552.252555 49.189263 
L 556.578522 49.18666 
L 560.904489 49.184851 
L 565.230456 49.183588 
L 569.556423 49.182708 
L 573.88239 49.182092 
L 578.208357 49.181662 
L 582.534324 49.181361 
L 586.860291 49.181151 
L 591.186258 49.181004 
L 595.512225 49.180901 
L 599.838192 49.180829 
L 604.164159 49.180778 
L 608.490126 49.180743 
L 612.816093 49.180718 
L 617.14206 49.180701 
L 621.468027 49.180689 
" style="fill:none;stroke:#fa8072;stroke-dasharray:6.4,1.6,1,1.6;stroke-dashoffset:0;"/>
   </g>
   <g id="patch_15">
    <path d="M 448.429347 101 
L 448.429347 7.2 
" style="fill:none;stroke:#000000;stroke-linecap:square;stroke-linejoin:miter;stroke-width:0.8;"/>
   </g>
   <g id="patch_16">
    <path d="M 621.468027 101 
L 621.468027 7.2 
" style="fill:none;stroke:#000000;stroke-linecap:square;stroke-linejoin:miter;stroke-width:0.8;"/>
   </g>
   <g id="patch_17">
    <path d="M 448.429347 101 
L 621.468027 101 
" style="fill:none;stroke:#000000;stroke-linecap:square;stroke-linejoin:miter;stroke-width:0.8;"/>
   </g>
   <g id="patch_18">
    <path d="M 448.429347 7.2 
L 621.468027 7.2 
" style="fill:none;stroke:#000000;stroke-linecap:square;stroke-linejoin:miter;stroke-width:0.8;"/>
   </g>
   <g id="legend_3">
    <g id="patch_19">
     <path d="M 496.602402 45.1125 
L 614.468027 45.1125 
Q 616.468027 45.1125 616.468027 43.1125 
L 616.468027 14.2 
Q 616.468027 12.2 614.468027 12.2 
L 496.602402 12.2 
Q 494.602402 12.2 494.602402 14.2 
L 494.602402 43.1125 
Q 494.602402 45.1125 496.602402 45.1125 
z
" style="fill:#ffffff;opacity:0.8;stroke:#cccccc;stroke-linejoin:miter;"/>
    </g>
    <g id="line2d_48">
     <path d="M 498.602402 20.298438 
L 518.602402 20.298438 
" style="fill:none;stroke:#ffa500;stroke-dasharray:3.7,1.6;stroke-dashoffset:0;"/>
    </g>
    <g id="line2d_49"/>
    <g id="text_27">
     <text style="font-family:DejaVu Sans;font-size:10px;font-stretch:normal;font-style:normal;font-weight:normal;text-anchor:start;" transform="rotate(-0, 526.602402, 23.798438)" x="526.602402" y="23.798438">abx_only</text>
    </g>
    <g id="line2d_50">
     <path d="M 498.602402 35.254688 
L 518.602402 35.254688 
" style="fill:none;stroke:#fa8072;stroke-dasharray:6.4,1.6,1,1.6;stroke-dashoffset:0;"/>
    </g>
    <g id="line2d_51"/>
    <g id="text_28">
     <text style="font-family:DejaVu Sans;font-size:10px;font-stretch:normal;font-style:normal;font-weight:normal;text-anchor:start;" transform="rotate(-0, 526.602402, 38.754688)" x="526.602402" y="38.754688">competition_only</text>
    </g>
   </g>
  </g>
  <g id="axes_4">
   <g id="patch_20">
    <path d="M 51.91375 239.6 
L 224.952431 239.6 
L 224.952431 145.8 
L 51.91375 145.8 
z
" style="fill:#ffffff;"/>
   </g>
   <g id="line2d_52">
    <path clip-path="url(#p37aeb72504)" d="M 95.17342 173.538013 
L 96.484319 174.208401 
L 97.795218 174.878788 
L 99.106117 175.549175 
L 100.417017 176.219562 
L 101.727916 176.88995 
L 103.038815 177.560337 
L 104.349714 178.230724 
L 105.660613 178.901111 
L 106.971512 179.571499 
L 108.282411 180.241886 
L 109.59331 180.912273 
L 110.904209 181.58266 
L 112.215108 182.253048 
L 113.526008 182.923435 
L 114.836907 183.593822 
L 116.147806 184.264209 
L 117.458705 184.934597 
L 118.769604 185.604984 
L 120.080503 186.275371 
L 121.391402 186.945758 
L 122.702301 187.616146 
L 124.0132 188.286533 
L 125.324099 188.95692 
L 126.634998 189.627307 
L 127.945898 190.297694 
L 129.256797 190.968082 
L 130.567696 191.638469 
L 131.878595 192.308856 
L 133.189494 192.979243 
L 134.500393 193.649631 
L 135.811292 194.320018 
L 137.122191 194.990405 
L 138.43309 195.660792 
L 139.743989 196.33118 
L 141.054889 197.001567 
L 142.365788 197.671954 
L 143.676687 198.342341 
L 144.987586 199.012729 
L 146.298485 199.683116 
L 147.609384 200.353503 
L 148.920283 201.02389 
L 150.231182 201.694278 
L 151.542081 202.364665 
L 152.85298 203.035052 
L 154.163879 203.705439 
L 155.474779 204.375827 
L 156.785678 205.046214 
L 158.096577 205.716601 
L 159.407476 206.386988 
L 160.718375 207.057376 
L 162.029274 207.727763 
L 163.340173 208.39815 
L 164.651072 209.068537 
L 165.961971 209.738925 
L 167.27287 210.409312 
L 168.58377 211.079699 
L 169.894669 211.750086 
L 171.205568 212.420474 
L 172.516467 213.090861 
L 173.827366 213.761248 
L 175.138265 214.431635 
L 176.449164 215.102023 
L 177.760063 215.77241 
L 179.070962 216.442797 
L 180.381861 217.113184 
L 181.692761 217.783572 
L 183.00366 218.453959 
L 184.314559 219.124346 
L 185.625458 219.794733 
L 186.936357 220.465121 
L 188.247256 221.135508 
L 189.558155 221.805895 
L 190.869054 222.476282 
L 192.179953 223.146669 
L 193.490852 223.817057 
L 194.801751 224.487444 
L 196.112651 225.157831 
L 197.42355 225.828218 
L 198.734449 226.498606 
L 200.045348 227.168993 
L 201.356247 227.83938 
L 202.667146 228.509767 
L 203.978045 229.180155 
L 205.288944 229.850542 
L 206.599843 230.520929 
L 207.910742 231.191316 
L 209.221642 231.861704 
L 210.532541 232.532091 
L 211.84344 233.202478 
L 213.154339 233.872865 
L 214.465238 234.543253 
L 215.776137 235.21364 
L 217.087036 235.884027 
L 218.397935 236.554414 
L 219.708834 237.224802 
L 221.019733 237.895189 
L 222.330632 238.565576 
L 223.641532 239.235963 
L 224.952431 239.906351 
" style="fill:none;stroke:#000000;stroke-linecap:square;stroke-width:1.5;"/>
   </g>
   <g id="PathCollection_1">
    <defs>
     <path d="M 0 4 
C 1.060812 4 2.078319 3.578535 2.828427 2.828427 
C 3.578535 2.078319 4 1.060812 4 0 
C 4 -1.060812 3.578535 -2.078319 2.828427 -2.828427 
C 2.078319 -3.578535 1.060812 -4 0 -4 
C -1.060812 -4 -2.078319 -3.578535 -2.828427 -2.828427 
C -3.578535 -2.078319 -4 -1.060812 -4 0 
C -4 1.060812 -3.578535 2.078319 -2.828427 2.828427 
C -2.078319 3.578535 -1.060812 4 0 4 
z
" id="m9db0a1e90d" style="stroke:#808080;"/>
    </defs>
    <g clip-path="url(#p37aeb72504)">
     <use style="fill:#808080;stroke:#808080;" x="69.434261" xlink:href="#m9db0a1e90d" y="155.010815"/>
     <use style="fill:#808080;stroke:#808080;" x="85.272068" xlink:href="#m9db0a1e90d" y="169.780204"/>
     <use style="fill:#808080;stroke:#808080;" x="101.109876" xlink:href="#m9db0a1e90d" y="178.75898"/>
     <use style="fill:#808080;stroke:#808080;" x="116.947684" xlink:href="#m9db0a1e90d" y="186.669096"/>
     <use style="fill:#808080;stroke:#808080;" x="132.785491" xlink:href="#m9db0a1e90d" y="194.280911"/>
     <use style="fill:#808080;stroke:#808080;" x="148.623299" xlink:href="#m9db0a1e90d" y="201.796134"/>
     <use style="fill:#808080;stroke:#808080;" x="164.461107" xlink:href="#m9db0a1e90d" y="209.278398"/>
     <use style="fill:#808080;stroke:#808080;" x="180.298914" xlink:href="#m9db0a1e90d" y="216.749412"/>
     <use style="fill:#808080;stroke:#808080;" x="196.136722" xlink:href="#m9db0a1e90d" y="224.216684"/>
     <use style="fill:#808080;stroke:#808080;" x="211.97453" xlink:href="#m9db0a1e90d" y="231.68263"/>
    </g>
   </g>
   <g id="matplotlib.axis_7">
    <g id="xtick_16">
     <g id="line2d_53">
      <g>
       <use style="stroke:#000000;stroke-width:0.8;" x="82.195519" xlink:href="#ma4b47ba4b1" y="239.6"/>
      </g>
     </g>
     <g id="text_29">
      <text style="font-family:DejaVu Sans;font-size:10px;font-stretch:normal;font-style:normal;font-weight:normal;text-anchor:middle;" transform="rotate(-0, 82.195519, 254.198438)" x="82.195519" y="254.198438">−3</text>
     </g>
    </g>
    <g id="xtick_17">
     <g id="line2d_54">
      <g>
       <use style="stroke:#000000;stroke-width:0.8;" x="125.455189" xlink:href="#ma4b47ba4b1" y="239.6"/>
      </g>
     </g>
     <g id="text_30">
      <text style="font-family:DejaVu Sans;font-size:10px;font-stretch:normal;font-style:normal;font-weight:normal;text-anchor:middle;" transform="rotate(-0, 125.455189, 254.198438)" x="125.455189" y="254.198438">−2</text>
     </g>
    </g>
    <g id="xtick_18">
     <g id="line2d_55">
      <g>
       <use style="stroke:#000000;stroke-width:0.8;" x="168.714859" xlink:href="#ma4b47ba4b1" y="239.6"/>
      </g>
     </g>
     <g id="text_31">
      <text style="font-family:DejaVu Sans;font-size:10px;font-stretch:normal;font-style:normal;font-weight:normal;text-anchor:middle;" transform="rotate(-0, 168.714859, 254.198438)" x="168.714859" y="254.198438">−1</text>
     </g>
    </g>
    <g id="xtick_19">
     <g id="line2d_56">
      <g>
       <use style="stroke:#000000;stroke-width:0.8;" x="211.97453" xlink:href="#ma4b47ba4b1" y="239.6"/>
      </g>
     </g>
     <g id="text_32">
      <text style="font-family:DejaVu Sans;font-size:10px;font-stretch:normal;font-style:normal;font-weight:normal;text-anchor:middle;" transform="rotate(-0, 211.97453, 254.198438)" x="211.97453" y="254.198438">0</text>
     </g>
    </g>
    <g id="text_33">
     <text style="font-family:DejaVu Sans;font-size:12px;font-stretch:normal;font-style:normal;font-weight:normal;text-anchor:middle;" transform="rotate(-0, 138.43309, 269.39625)" x="138.43309" y="269.39625">Oral bacterial fraction</text>
    </g>
   </g>
   <g id="matplotlib.axis_8">
    <g id="ytick_10">
     <g id="line2d_57">
      <g>
       <use style="stroke:#000000;stroke-width:0.8;" x="51.91375" xlink:href="#ma3051bc047" y="202.895652"/>
      </g>
     </g>
     <g id="text_34">
      <text style="font-family:DejaVu Sans;font-size:10px;font-stretch:normal;font-style:normal;font-weight:normal;text-anchor:end;" transform="rotate(-0, 44.91375, 206.694871)" x="44.91375" y="206.694871">8</text>
     </g>
    </g>
    <g id="ytick_11">
     <g id="line2d_58">
      <g>
       <use style="stroke:#000000;stroke-width:0.8;" x="51.91375" xlink:href="#ma3051bc047" y="162.113043"/>
      </g>
     </g>
     <g id="text_35">
      <text style="font-family:DejaVu Sans;font-size:10px;font-stretch:normal;font-style:normal;font-weight:normal;text-anchor:end;" transform="rotate(-0, 44.91375, 165.912262)" x="44.91375" y="165.912262">10</text>
     </g>
    </g>
    <g id="text_36">
     <text style="font-family:DejaVu Sans;font-size:12px;font-stretch:normal;font-style:normal;font-weight:normal;text-anchor:middle;" transform="rotate(-90, 25.693125, 192.7)" x="25.693125" y="192.7">Load (cfu/g)</text>
    </g>
   </g>
   <g id="line2d_59">
    <path clip-path="url(#p37aeb72504)" d="M 51.91375 146.755159 
L 224.952431 228.320377 
" style="fill:none;stroke:#000000;stroke-dasharray:5.55,2.4;stroke-dashoffset:0;stroke-width:1.5;"/>
   </g>
   <g id="patch_21">
    <path d="M 51.91375 239.6 
L 51.91375 145.8 
" style="fill:none;stroke:#000000;stroke-linecap:square;stroke-linejoin:miter;stroke-width:0.8;"/>
   </g>
   <g id="patch_22">
    <path d="M 224.952431 239.6 
L 224.952431 145.8 
" style="fill:none;stroke:#000000;stroke-linecap:square;stroke-linejoin:miter;stroke-width:0.8;"/>
   </g>
   <g id="patch_23">
    <path d="M 51.91375 239.6 
L 224.952431 239.6 
" style="fill:none;stroke:#000000;stroke-linecap:square;stroke-linejoin:miter;stroke-width:0.8;"/>
   </g>
   <g id="patch_24">
    <path d="M 51.91375 145.8 
L 224.952431 145.8 
" style="fill:none;stroke:#000000;stroke-linecap:square;stroke-linejoin:miter;stroke-width:0.8;"/>
   </g>
   <g id="legend_4">
    <g id="patch_25">
     <path d="M 64.818056 168.478125 
L 217.952431 168.478125 
Q 219.952431 168.478125 219.952431 166.478125 
L 219.952431 152.8 
Q 219.952431 150.8 217.952431 150.8 
L 64.818056 150.8 
Q 62.818056 150.8 62.818056 152.8 
L 62.818056 166.478125 
Q 62.818056 168.478125 64.818056 168.478125 
z
" style="fill:#ffffff;opacity:0.8;stroke:#cccccc;stroke-linejoin:miter;"/>
    </g>
    <g id="line2d_60">
     <path d="M 66.818056 158.898438 
L 86.818056 158.898438 
" style="fill:none;stroke:#000000;stroke-linecap:square;stroke-width:1.5;"/>
    </g>
    <g id="line2d_61"/>
    <g id="text_37">
     <text style="font-family:DejaVu Sans;font-size:10px;font-stretch:normal;font-style:normal;font-weight:normal;text-anchor:start;" transform="rotate(-0, 94.818056, 162.398438)" x="94.818056" y="162.398438">slope=-1.08, corr=-1.00</text>
    </g>
   </g>
  </g>
  <g id="axes_5">
   <g id="patch_26">
    <path d="M 250.171548 239.6 
L 423.210229 239.6 
L 423.210229 145.8 
L 250.171548 145.8 
z
" style="fill:#ffffff;"/>
   </g>
   <g id="line2d_62">
    <path clip-path="url(#p306c48f0c2)" d="M 293.431219 169.398931 
L 294.742118 170.018762 
L 296.053017 170.638593 
L 297.363916 171.258424 
L 298.674815 171.878255 
L 299.985714 172.498087 
L 301.296613 173.117918 
L 302.607512 173.737749 
L 303.918411 174.35758 
L 305.22931 174.977411 
L 306.540209 175.597242 
L 307.851109 176.217073 
L 309.162008 176.836904 
L 310.472907 177.456735 
L 311.783806 178.076566 
L 313.094705 178.696397 
L 314.405604 179.316228 
L 315.716503 179.936059 
L 317.027402 180.55589 
L 318.338301 181.175721 
L 319.6492 181.795552 
L 320.9601 182.415383 
L 322.270999 183.035214 
L 323.581898 183.655045 
L 324.892797 184.274876 
L 326.203696 184.894707 
L 327.514595 185.514538 
L 328.825494 186.13437 
L 330.136393 186.754201 
L 331.447292 187.374032 
L 332.758191 187.993863 
L 334.06909 188.613694 
L 335.37999 189.233525 
L 336.690889 189.853356 
L 338.001788 190.473187 
L 339.312687 191.093018 
L 340.623586 191.712849 
L 341.934485 192.33268 
L 343.245384 192.952511 
L 344.556283 193.572342 
L 345.867182 194.192173 
L 347.178081 194.812004 
L 348.488981 195.431835 
L 349.79988 196.051666 
L 351.110779 196.671497 
L 352.421678 197.291328 
L 353.732577 197.911159 
L 355.043476 198.53099 
L 356.354375 199.150821 
L 357.665274 199.770653 
L 358.976173 200.390484 
L 360.287072 201.010315 
L 361.597971 201.630146 
L 362.908871 202.249977 
L 364.21977 202.869808 
L 365.530669 203.489639 
L 366.841568 204.10947 
L 368.152467 204.729301 
L 369.463366 205.349132 
L 370.774265 205.968963 
L 372.085164 206.588794 
L 373.396063 207.208625 
L 374.706962 207.828456 
L 376.017862 208.448287 
L 377.328761 209.068118 
L 378.63966 209.687949 
L 379.950559 210.30778 
L 381.261458 210.927611 
L 382.572357 211.547442 
L 383.883256 212.167273 
L 385.194155 212.787104 
L 386.505054 213.406936 
L 387.815953 214.026767 
L 389.126853 214.646598 
L 390.437752 215.266429 
L 391.748651 215.88626 
L 393.05955 216.506091 
L 394.370449 217.125922 
L 395.681348 217.745753 
L 396.992247 218.365584 
L 398.303146 218.985415 
L 399.614045 219.605246 
L 400.924944 220.225077 
L 402.235843 220.844908 
L 403.546743 221.464739 
L 404.857642 222.08457 
L 406.168541 222.704401 
L 407.47944 223.324232 
L 408.790339 223.944063 
L 410.101238 224.563894 
L 411.412137 225.183725 
L 412.723036 225.803556 
L 414.033935 226.423387 
L 415.344834 227.043218 
L 416.655734 227.66305 
L 417.966633 228.282881 
L 419.277532 228.902712 
L 420.588431 229.522543 
L 421.89933 230.142374 
L 423.210229 230.762205 
" style="fill:none;stroke:#000000;stroke-linecap:square;stroke-width:1.5;"/>
   </g>
   <g id="PathCollection_2">
    <g clip-path="url(#p306c48f0c2)">
     <use style="fill:#808080;stroke:#808080;" x="267.692059" xlink:href="#m9db0a1e90d" y="155.010815"/>
     <use style="fill:#808080;stroke:#808080;" x="283.529867" xlink:href="#m9db0a1e90d" y="165.482658"/>
     <use style="fill:#808080;stroke:#808080;" x="299.367674" xlink:href="#m9db0a1e90d" y="173.203375"/>
     <use style="fill:#808080;stroke:#808080;" x="315.205482" xlink:href="#m9db0a1e90d" y="180.452607"/>
     <use style="fill:#808080;stroke:#808080;" x="331.04329" xlink:href="#m9db0a1e90d" y="187.638217"/>
     <use style="fill:#808080;stroke:#808080;" x="346.881097" xlink:href="#m9db0a1e90d" y="194.859984"/>
     <use style="fill:#808080;stroke:#808080;" x="362.718905" xlink:href="#m9db0a1e90d" y="202.139937"/>
     <use style="fill:#808080;stroke:#808080;" x="378.556713" xlink:href="#m9db0a1e90d" y="209.469441"/>
     <use style="fill:#808080;stroke:#808080;" x="394.39452" xlink:href="#m9db0a1e90d" y="216.833318"/>
     <use style="fill:#808080;stroke:#808080;" x="410.232328" xlink:href="#m9db0a1e90d" y="224.182593"/>
    </g>
   </g>
   <g id="matplotlib.axis_9">
    <g id="xtick_20">
     <g id="line2d_63">
      <g>
       <use style="stroke:#000000;stroke-width:0.8;" x="280.453317" xlink:href="#ma4b47ba4b1" y="239.6"/>
      </g>
     </g>
     <g id="text_38">
      <text style="font-family:DejaVu Sans;font-size:10px;font-stretch:normal;font-style:normal;font-weight:normal;text-anchor:middle;" transform="rotate(-0, 280.453317, 254.198438)" x="280.453317" y="254.198438">−3</text>
     </g>
    </g>
    <g id="xtick_21">
     <g id="line2d_64">
      <g>
       <use style="stroke:#000000;stroke-width:0.8;" x="323.712988" xlink:href="#ma4b47ba4b1" y="239.6"/>
      </g>
     </g>
     <g id="text_39">
      <text style="font-family:DejaVu Sans;font-size:10px;font-stretch:normal;font-style:normal;font-weight:normal;text-anchor:middle;" transform="rotate(-0, 323.712988, 254.198438)" x="323.712988" y="254.198438">−2</text>
     </g>
    </g>
    <g id="xtick_22">
     <g id="line2d_65">
      <g>
       <use style="stroke:#000000;stroke-width:0.8;" x="366.972658" xlink:href="#ma4b47ba4b1" y="239.6"/>
      </g>
     </g>
     <g id="text_40">
      <text style="font-family:DejaVu Sans;font-size:10px;font-stretch:normal;font-style:normal;font-weight:normal;text-anchor:middle;" transform="rotate(-0, 366.972658, 254.198438)" x="366.972658" y="254.198438">−1</text>
     </g>
    </g>
    <g id="xtick_23">
     <g id="line2d_66">
      <g>
       <use style="stroke:#000000;stroke-width:0.8;" x="410.232328" xlink:href="#ma4b47ba4b1" y="239.6"/>
      </g>
     </g>
     <g id="text_41">
      <text style="font-family:DejaVu Sans;font-size:10px;font-stretch:normal;font-style:normal;font-weight:normal;text-anchor:middle;" transform="rotate(-0, 410.232328, 254.198438)" x="410.232328" y="254.198438">0</text>
     </g>
    </g>
    <g id="text_42">
     <text style="font-family:DejaVu Sans;font-size:12px;font-stretch:normal;font-style:normal;font-weight:normal;text-anchor:middle;" transform="rotate(-0, 336.690889, 269.39625)" x="336.690889" y="269.39625">Oral bacterial fraction</text>
    </g>
   </g>
   <g id="matplotlib.axis_10">
    <g id="ytick_12">
     <g id="line2d_67">
      <g>
       <use style="stroke:#000000;stroke-width:0.8;" x="250.171548" xlink:href="#ma3051bc047" y="202.895652"/>
      </g>
     </g>
    </g>
    <g id="ytick_13">
     <g id="line2d_68">
      <g>
       <use style="stroke:#000000;stroke-width:0.8;" x="250.171548" xlink:href="#ma3051bc047" y="162.113043"/>
      </g>
     </g>
    </g>
   </g>
   <g id="line2d_69">
    <path clip-path="url(#p306c48f0c2)" d="M 250.171548 146.755159 
L 423.210229 228.320377 
" style="fill:none;stroke:#000000;stroke-dasharray:5.55,2.4;stroke-dashoffset:0;stroke-width:1.5;"/>
   </g>
   <g id="patch_27">
    <path d="M 250.171548 239.6 
L 250.171548 145.8 
" style="fill:none;stroke:#000000;stroke-linecap:square;stroke-linejoin:miter;stroke-width:0.8;"/>
   </g>
   <g id="patch_28">
    <path d="M 423.210229 239.6 
L 423.210229 145.8 
" style="fill:none;stroke:#000000;stroke-linecap:square;stroke-linejoin:miter;stroke-width:0.8;"/>
   </g>
   <g id="patch_29">
    <path d="M 250.171548 239.6 
L 423.210229 239.6 
" style="fill:none;stroke:#000000;stroke-linecap:square;stroke-linejoin:miter;stroke-width:0.8;"/>
   </g>
   <g id="patch_30">
    <path d="M 250.171548 145.8 
L 423.210229 145.8 
" style="fill:none;stroke:#000000;stroke-linecap:square;stroke-linejoin:miter;stroke-width:0.8;"/>
   </g>
   <g id="legend_5">
    <g id="patch_31">
     <path d="M 263.075854 168.478125 
L 416.210229 168.478125 
Q 418.210229 168.478125 418.210229 166.478125 
L 418.210229 152.8 
Q 418.210229 150.8 416.210229 150.8 
L 263.075854 150.8 
Q 261.075854 150.8 261.075854 152.8 
L 261.075854 166.478125 
Q 261.075854 168.478125 263.075854 168.478125 
z
" style="fill:#ffffff;opacity:0.8;stroke:#cccccc;stroke-linejoin:miter;"/>
    </g>
    <g id="line2d_70">
     <path d="M 265.075854 158.898438 
L 285.075854 158.898438 
" style="fill:none;stroke:#000000;stroke-linecap:square;stroke-width:1.5;"/>
    </g>
    <g id="line2d_71"/>
    <g id="text_43">
     <text style="font-family:DejaVu Sans;font-size:10px;font-stretch:normal;font-style:normal;font-weight:normal;text-anchor:start;" transform="rotate(-0, 293.075854, 162.398438)" x="293.075854" y="162.398438">slope=-1.00, corr=-1.00</text>
    </g>
   </g>
  </g>
  <g id="axes_6">
   <g id="patch_32">
    <path d="M 448.429347 239.6 
L 621.468027 239.6 
L 621.468027 145.8 
L 448.429347 145.8 
z
" style="fill:#ffffff;"/>
   </g>
   <g id="line2d_72">
    <path clip-path="url(#p5b7e0cb821)" d="M 491.689017 163.431409 
L 492.999916 163.719872 
L 494.310815 164.008335 
L 495.621714 164.296798 
L 496.932613 164.585261 
L 498.243512 164.873724 
L 499.554411 165.162187 
L 500.865311 165.45065 
L 502.17621 165.739113 
L 503.487109 166.027576 
L 504.798008 166.31604 
L 506.108907 166.604503 
L 507.419806 166.892966 
L 508.730705 167.181429 
L 510.041604 167.469892 
L 511.352503 167.758355 
L 512.663402 168.046818 
L 513.974301 168.335281 
L 515.285201 168.623744 
L 516.5961 168.912207 
L 517.906999 169.20067 
L 519.217898 169.489133 
L 520.528797 169.777596 
L 521.839696 170.066059 
L 523.150595 170.354522 
L 524.461494 170.642985 
L 525.772393 170.931448 
L 527.083292 171.219911 
L 528.394192 171.508374 
L 529.705091 171.796837 
L 531.01599 172.0853 
L 532.326889 172.373763 
L 533.637788 172.662226 
L 534.948687 172.950689 
L 536.259586 173.239152 
L 537.570485 173.527615 
L 538.881384 173.816078 
L 540.192283 174.104542 
L 541.503182 174.393005 
L 542.814082 174.681468 
L 544.124981 174.969931 
L 545.43588 175.258394 
L 546.746779 175.546857 
L 548.057678 175.83532 
L 549.368577 176.123783 
L 550.679476 176.412246 
L 551.990375 176.700709 
L 553.301274 176.989172 
L 554.612173 177.277635 
L 555.923073 177.566098 
L 557.233972 177.854561 
L 558.544871 178.143024 
L 559.85577 178.431487 
L 561.166669 178.71995 
L 562.477568 179.008413 
L 563.788467 179.296876 
L 565.099366 179.585339 
L 566.410265 179.873802 
L 567.721164 180.162265 
L 569.032064 180.450728 
L 570.342963 180.739191 
L 571.653862 181.027654 
L 572.964761 181.316117 
L 574.27566 181.60458 
L 575.586559 181.893044 
L 576.897458 182.181507 
L 578.208357 182.46997 
L 579.519256 182.758433 
L 580.830155 183.046896 
L 582.141054 183.335359 
L 583.451954 183.623822 
L 584.762853 183.912285 
L 586.073752 184.200748 
L 587.384651 184.489211 
L 588.69555 184.777674 
L 590.006449 185.066137 
L 591.317348 185.3546 
L 592.628247 185.643063 
L 593.939146 185.931526 
L 595.250045 186.219989 
L 596.560945 186.508452 
L 597.871844 186.796915 
L 599.182743 187.085378 
L 600.493642 187.373841 
L 601.804541 187.662304 
L 603.11544 187.950767 
L 604.426339 188.23923 
L 605.737238 188.527693 
L 607.048137 188.816156 
L 608.359036 189.104619 
L 609.669935 189.393083 
L 610.980835 189.681546 
L 612.291734 189.970009 
L 613.602633 190.258472 
L 614.913532 190.546935 
L 616.224431 190.835398 
L 617.53533 191.123861 
L 618.846229 191.412324 
L 620.157128 191.700787 
L 621.468027 191.98925 
" style="fill:none;stroke:#000000;stroke-linecap:square;stroke-width:1.5;"/>
   </g>
   <g id="PathCollection_3">
    <g clip-path="url(#p5b7e0cb821)">
     <use style="fill:#808080;stroke:#808080;" x="465.949857" xlink:href="#m9db0a1e90d" y="155.010815"/>
     <use style="fill:#808080;stroke:#808080;" x="481.787665" xlink:href="#m9db0a1e90d" y="160.998572"/>
     <use style="fill:#808080;stroke:#808080;" x="497.625473" xlink:href="#m9db0a1e90d" y="165.315113"/>
     <use style="fill:#808080;stroke:#808080;" x="513.46328" xlink:href="#m9db0a1e90d" y="169.19624"/>
     <use style="fill:#808080;stroke:#808080;" x="529.301088" xlink:href="#m9db0a1e90d" y="172.885817"/>
     <use style="fill:#808080;stroke:#808080;" x="545.138896" xlink:href="#m9db0a1e90d" y="176.45008"/>
     <use style="fill:#808080;stroke:#808080;" x="560.976703" xlink:href="#m9db0a1e90d" y="179.915067"/>
     <use style="fill:#808080;stroke:#808080;" x="576.814511" xlink:href="#m9db0a1e90d" y="183.197425"/>
     <use style="fill:#808080;stroke:#808080;" x="592.652319" xlink:href="#m9db0a1e90d" y="185.91219"/>
     <use style="fill:#808080;stroke:#808080;" x="608.490126" xlink:href="#m9db0a1e90d" y="185.623575"/>
    </g>
   </g>
   <g id="matplotlib.axis_11">
    <g id="xtick_24">
     <g id="line2d_73">
      <g>
       <use style="stroke:#000000;stroke-width:0.8;" x="478.711116" xlink:href="#ma4b47ba4b1" y="239.6"/>
      </g>
     </g>
     <g id="text_44">
      <text style="font-family:DejaVu Sans;font-size:10px;font-stretch:normal;font-style:normal;font-weight:normal;text-anchor:middle;" transform="rotate(-0, 478.711116, 254.198438)" x="478.711116" y="254.198438">−3</text>
     </g>
    </g>
    <g id="xtick_25">
     <g id="line2d_74">
      <g>
       <use style="stroke:#000000;stroke-width:0.8;" x="521.970786" xlink:href="#ma4b47ba4b1" y="239.6"/>
      </g>
     </g>
     <g id="text_45">
      <text style="font-family:DejaVu Sans;font-size:10px;font-stretch:normal;font-style:normal;font-weight:normal;text-anchor:middle;" transform="rotate(-0, 521.970786, 254.198438)" x="521.970786" y="254.198438">−2</text>
     </g>
    </g>
    <g id="xtick_26">
     <g id="line2d_75">
      <g>
       <use style="stroke:#000000;stroke-width:0.8;" x="565.230456" xlink:href="#ma4b47ba4b1" y="239.6"/>
      </g>
     </g>
     <g id="text_46">
      <text style="font-family:DejaVu Sans;font-size:10px;font-stretch:normal;font-style:normal;font-weight:normal;text-anchor:middle;" transform="rotate(-0, 565.230456, 254.198438)" x="565.230456" y="254.198438">−1</text>
     </g>
    </g>
    <g id="xtick_27">
     <g id="line2d_76">
      <g>
       <use style="stroke:#000000;stroke-width:0.8;" x="608.490126" xlink:href="#ma4b47ba4b1" y="239.6"/>
      </g>
     </g>
     <g id="text_47">
      <text style="font-family:DejaVu Sans;font-size:10px;font-stretch:normal;font-style:normal;font-weight:normal;text-anchor:middle;" transform="rotate(-0, 608.490126, 254.198438)" x="608.490126" y="254.198438">0</text>
     </g>
    </g>
    <g id="text_48">
     <text style="font-family:DejaVu Sans;font-size:12px;font-stretch:normal;font-style:normal;font-weight:normal;text-anchor:middle;" transform="rotate(-0, 534.948687, 269.39625)" x="534.948687" y="269.39625">Oral bacterial fraction</text>
    </g>
   </g>
   <g id="matplotlib.axis_12">
    <g id="ytick_14">
     <g id="line2d_77">
      <g>
       <use style="stroke:#000000;stroke-width:0.8;" x="448.429347" xlink:href="#ma3051bc047" y="202.895652"/>
      </g>
     </g>
    </g>
    <g id="ytick_15">
     <g id="line2d_78">
      <g>
       <use style="stroke:#000000;stroke-width:0.8;" x="448.429347" xlink:href="#ma3051bc047" y="162.113043"/>
      </g>
     </g>
    </g>
   </g>
   <g id="line2d_79">
    <path clip-path="url(#p5b7e0cb821)" d="M 448.429347 146.755159 
L 621.468027 228.320377 
" style="fill:none;stroke:#000000;stroke-dasharray:5.55,2.4;stroke-dashoffset:0;stroke-width:1.5;"/>
   </g>
   <g id="patch_33">
    <path d="M 448.429347 239.6 
L 448.429347 145.8 
" style="fill:none;stroke:#000000;stroke-linecap:square;stroke-linejoin:miter;stroke-width:0.8;"/>
   </g>
   <g id="patch_34">
    <path d="M 621.468027 239.6 
L 621.468027 145.8 
" style="fill:none;stroke:#000000;stroke-linecap:square;stroke-linejoin:miter;stroke-width:0.8;"/>
   </g>
   <g id="patch_35">
    <path d="M 448.429347 239.6 
L 621.468027 239.6 
" style="fill:none;stroke:#000000;stroke-linecap:square;stroke-linejoin:miter;stroke-width:0.8;"/>
   </g>
   <g id="patch_36">
    <path d="M 448.429347 145.8 
L 621.468027 145.8 
" style="fill:none;stroke:#000000;stroke-linecap:square;stroke-linejoin:miter;stroke-width:0.8;"/>
   </g>
   <g id="legend_6">
    <g id="patch_37">
     <path d="M 455.429347 234.6 
L 608.563722 234.6 
Q 610.563722 234.6 610.563722 232.6 
L 610.563722 218.921875 
Q 610.563722 216.921875 608.563722 216.921875 
L 455.429347 216.921875 
Q 453.429347 216.921875 453.429347 218.921875 
L 453.429347 232.6 
Q 453.429347 234.6 455.429347 234.6 
z
" style="fill:#ffffff;opacity:0.8;stroke:#cccccc;stroke-linejoin:miter;"/>
    </g>
    <g id="line2d_80">
     <path d="M 457.429347 225.020313 
L 477.429347 225.020313 
" style="fill:none;stroke:#000000;stroke-linecap:square;stroke-width:1.5;"/>
    </g>
    <g id="line2d_81"/>
    <g id="text_49">
     <text style="font-family:DejaVu Sans;font-size:10px;font-stretch:normal;font-style:normal;font-weight:normal;text-anchor:start;" transform="rotate(-0, 485.429347, 228.520313)" x="485.429347" y="228.520313">slope=-0.47, corr=-0.99</text>
    </g>
   </g>
  </g>
 </g>
 <defs>
  <clipPath id="pf8f5c68cf1">
   <rect height="93.8" width="173.038681" x="51.91375" y="7.2"/>
  </clipPath>
  <clipPath id="pf51987af10">
   <rect height="93.8" width="173.038681" x="250.171548" y="7.2"/>
  </clipPath>
  <clipPath id="p1d63080ae8">
   <rect height="93.8" width="173.038681" x="448.429347" y="7.2"/>
  </clipPath>
  <clipPath id="p37aeb72504">
   <rect height="93.8" width="173.038681" x="51.91375" y="145.8"/>
  </clipPath>
  <clipPath id="p306c48f0c2">
   <rect height="93.8" width="173.038681" x="250.171548" y="145.8"/>
  </clipPath>
  <clipPath id="p5b7e0cb821">
   <rect height="93.8" width="173.038681" x="448.429347" y="145.8"/>
  </clipPath>
 </defs>
</svg>
